<svg width="63" height="22" viewBox="0 0 63 22" fill="none" xmlns="http://www.w3.org/2000/svg">
<g id="Group 1875">
<path id="Vector" d="M28.4349 4.59497H28.2471V21.1279H28.4349V4.59497Z" fill="white"/>
<path id="Vector_2" d="M12.7855 15.8448C12.8353 15.8448 12.8756 15.8045 12.8756 15.7549C12.8756 15.7052 12.8353 15.665 12.7855 15.665C12.7357 15.665 12.6953 15.7052 12.6953 15.7549C12.6953 15.8045 12.7357 15.8448 12.7855 15.8448Z" fill="white"/>
<path id="Vector_3" d="M13.6124 15.8729C13.6683 15.8729 13.7136 15.8276 13.7136 15.7717C13.7136 15.7159 13.6683 15.6706 13.6124 15.6706C13.5565 15.6706 13.5112 15.7159 13.5112 15.7717C13.5112 15.8276 13.5565 15.8729 13.6124 15.8729Z" fill="white"/>
<path id="Vector_4" d="M14.4601 15.8149C14.5217 15.8149 14.5716 15.765 14.5716 15.7034C14.5716 15.6418 14.5217 15.5919 14.4601 15.5919C14.3985 15.5919 14.3486 15.6418 14.3486 15.7034C14.3486 15.765 14.3985 15.8149 14.4601 15.8149Z" fill="white"/>
<path id="Vector_5" d="M15.2712 15.6388C15.3389 15.6388 15.3939 15.5839 15.3939 15.5161C15.3939 15.4484 15.3389 15.3934 15.2712 15.3934C15.2034 15.3934 15.1484 15.4484 15.1484 15.5161C15.1484 15.5839 15.2034 15.6388 15.2712 15.6388Z" fill="white"/>
<path id="Vector_6" d="M15.9861 15.3111C16.0595 15.3111 16.1191 15.2515 16.1191 15.1781C16.1191 15.1046 16.0595 15.0451 15.9861 15.0451C15.9126 15.0451 15.853 15.1046 15.853 15.1781C15.853 15.2515 15.9126 15.3111 15.9861 15.3111Z" fill="white"/>
<path id="Vector_7" d="M16.5452 14.8017C16.6248 14.8017 16.6894 14.7371 16.6894 14.6574C16.6894 14.5778 16.6248 14.5132 16.5452 14.5132C16.4655 14.5132 16.4009 14.5778 16.4009 14.6574C16.4009 14.7371 16.4655 14.8017 16.5452 14.8017Z" fill="white"/>
<path id="Vector_8" d="M16.9048 14.0432C16.9907 14.0432 17.0603 13.9736 17.0603 13.8877C17.0603 13.8019 16.9907 13.7323 16.9048 13.7323C16.8189 13.7323 16.7493 13.8019 16.7493 13.8877C16.7493 13.9736 16.8189 14.0432 16.9048 14.0432Z" fill="white"/>
<path id="Vector_9" d="M16.9742 13.2164C17.0658 13.2164 17.14 13.1422 17.14 13.0506C17.14 12.959 17.0658 12.8848 16.9742 12.8848C16.8826 12.8848 16.8083 12.959 16.8083 13.0506C16.8083 13.1422 16.8826 13.2164 16.9742 13.2164Z" fill="white"/>
<path id="Vector_10" d="M16.7635 12.4617C16.8613 12.4617 16.9406 12.3824 16.9406 12.2847C16.9406 12.1869 16.8613 12.1076 16.7635 12.1076C16.6657 12.1076 16.5864 12.1869 16.5864 12.2847C16.5864 12.3824 16.6657 12.4617 16.7635 12.4617Z" fill="white"/>
<path id="Vector_11" d="M16.3456 11.7837C16.4491 11.7837 16.533 11.6998 16.533 11.5964C16.533 11.4929 16.4491 11.4091 16.3456 11.4091C16.2421 11.4091 16.1582 11.4929 16.1582 11.5964C16.1582 11.6998 16.2421 11.7837 16.3456 11.7837Z" fill="white"/>
<path id="Vector_12" d="M15.7929 11.1929C15.9025 11.1929 15.9915 11.104 15.9915 10.9943C15.9915 10.8846 15.9025 10.7957 15.7929 10.7957C15.6832 10.7957 15.5942 10.8846 15.5942 10.9943C15.5942 11.104 15.6832 11.1929 15.7929 11.1929Z" fill="white"/>
<path id="Vector_13" d="M15.1776 10.6947C15.2935 10.6947 15.3875 10.6008 15.3875 10.4849C15.3875 10.369 15.2935 10.2751 15.1776 10.2751C15.0617 10.2751 14.9678 10.369 14.9678 10.4849C14.9678 10.6008 15.0617 10.6947 15.1776 10.6947Z" fill="white"/>
<path id="Vector_14" d="M14.5725 10.2958C14.6941 10.2958 14.7926 10.1972 14.7926 10.0757C14.7926 9.95413 14.6941 9.85559 14.5725 9.85559C14.4509 9.85559 14.3523 9.95413 14.3523 10.0757C14.3523 10.1972 14.4509 10.2958 14.5725 10.2958Z" fill="white"/>
<path id="Vector_15" d="M14.0715 9.97367C14.1993 9.97367 14.3029 9.87009 14.3029 9.74233C14.3029 9.61456 14.1993 9.51099 14.0715 9.51099C13.9437 9.51099 13.8401 9.61456 13.8401 9.74233C13.8401 9.87009 13.9437 9.97367 14.0715 9.97367Z" fill="white"/>
<path id="Vector_16" d="M13.5601 9.71244C13.6936 9.71244 13.8018 9.60425 13.8018 9.4708C13.8018 9.33734 13.6936 9.22916 13.5601 9.22916C13.4266 9.22916 13.3184 9.33734 13.3184 9.4708C13.3184 9.60425 13.4266 9.71244 13.5601 9.71244Z" fill="white"/>
<path id="Vector_17" d="M13.1261 16.0433C13.182 16.0433 13.2273 15.9981 13.2273 15.9422C13.2273 15.8863 13.182 15.841 13.1261 15.841C13.0702 15.841 13.0249 15.8863 13.0249 15.9422C13.0249 15.9981 13.0702 16.0433 13.1261 16.0433Z" fill="white"/>
<path id="Vector_18" d="M14.0402 16.0583C14.1018 16.0583 14.1517 16.0084 14.1517 15.9468C14.1517 15.8853 14.1018 15.8354 14.0402 15.8354C13.9786 15.8354 13.9287 15.8853 13.9287 15.9468C13.9287 16.0084 13.9786 16.0583 14.0402 16.0583Z" fill="white"/>
<path id="Vector_19" d="M15.0202 15.9665C15.088 15.9665 15.1429 15.9116 15.1429 15.8439C15.1429 15.7761 15.088 15.7212 15.0202 15.7212C14.9524 15.7212 14.8975 15.7761 14.8975 15.8439C14.8975 15.9116 14.9524 15.9665 15.0202 15.9665Z" fill="white"/>
<path id="Vector_20" d="M15.9445 15.725C16.0185 15.725 16.0785 15.665 16.0785 15.591C16.0785 15.5171 16.0185 15.4571 15.9445 15.4571C15.8705 15.4571 15.8105 15.5171 15.8105 15.591C15.8105 15.665 15.8705 15.725 15.9445 15.725Z" fill="white"/>
<path id="Vector_21" d="M16.74 15.2923C16.8197 15.2923 16.8843 15.2278 16.8843 15.1481C16.8843 15.0685 16.8197 15.0039 16.74 15.0039C16.6603 15.0039 16.5957 15.0685 16.5957 15.1481C16.5957 15.2278 16.6603 15.2923 16.74 15.2923Z" fill="white"/>
<path id="Vector_22" d="M17.3337 14.6331C17.4196 14.6331 17.4893 14.5635 17.4893 14.4776C17.4893 14.3918 17.4196 14.3222 17.3337 14.3222C17.2479 14.3222 17.1782 14.3918 17.1782 14.4776C17.1782 14.5635 17.2479 14.6331 17.3337 14.6331Z" fill="white"/>
<path id="Vector_23" d="M17.6812 13.9028C17.7728 13.9028 17.847 13.8286 17.847 13.737C17.847 13.6454 17.7728 13.5712 17.6812 13.5712C17.5896 13.5712 17.5154 13.6454 17.5154 13.737C17.5154 13.8286 17.5896 13.9028 17.6812 13.9028Z" fill="white"/>
<path id="Vector_24" d="M17.8133 13.179C17.9111 13.179 17.9904 13.0997 17.9904 13.0019C17.9904 12.9042 17.9111 12.8249 17.8133 12.8249C17.7155 12.8249 17.6362 12.9042 17.6362 13.0019C17.6362 13.0997 17.7155 13.179 17.8133 13.179Z" fill="white"/>
<path id="Vector_25" d="M17.7132 12.4102C17.8172 12.4102 17.9015 12.3259 17.9015 12.2219C17.9015 12.1179 17.8172 12.0337 17.7132 12.0337C17.6092 12.0337 17.5249 12.1179 17.5249 12.2219C17.5249 12.3259 17.6092 12.4102 17.7132 12.4102Z" fill="white"/>
<path id="Vector_26" d="M17.3712 11.5993C17.4809 11.5993 17.5698 11.5104 17.5698 11.4007C17.5698 11.291 17.4809 11.2021 17.3712 11.2021C17.2615 11.2021 17.1726 11.291 17.1726 11.4007C17.1726 11.5104 17.2615 11.5993 17.3712 11.5993Z" fill="white"/>
<path id="Vector_27" d="M16.8598 10.8482C16.9757 10.8482 17.0696 10.7543 17.0696 10.6384C17.0696 10.5226 16.9757 10.4286 16.8598 10.4286C16.7439 10.4286 16.6499 10.5226 16.6499 10.6384C16.6499 10.7543 16.7439 10.8482 16.8598 10.8482Z" fill="white"/>
<path id="Vector_28" d="M16.2499 10.1722C16.372 10.1722 16.471 10.0732 16.471 9.95117C16.471 9.82909 16.372 9.73013 16.2499 9.73013C16.1278 9.73013 16.0288 9.82909 16.0288 9.95117C16.0288 10.0732 16.1278 10.1722 16.2499 10.1722Z" fill="white"/>
<path id="Vector_29" d="M15.6103 9.58228C15.7381 9.58228 15.8417 9.4787 15.8417 9.35094C15.8417 9.22317 15.7381 9.1196 15.6103 9.1196C15.4825 9.1196 15.3789 9.22317 15.3789 9.35094C15.3789 9.4787 15.4825 9.58228 15.6103 9.58228Z" fill="white"/>
<path id="Vector_30" d="M15.1054 9.18242C15.2395 9.18242 15.3481 9.07382 15.3481 8.93984C15.3481 8.80587 15.2395 8.69727 15.1054 8.69727C14.9714 8.69727 14.8628 8.80587 14.8628 8.93984C14.8628 9.07382 14.9714 9.18242 15.1054 9.18242Z" fill="white"/>
<path id="Vector_31" d="M14.6838 8.8126C14.824 8.8126 14.9377 8.69896 14.9377 8.55878C14.9377 8.4186 14.824 8.30496 14.6838 8.30496C14.5436 8.30496 14.4299 8.4186 14.4299 8.55878C14.4299 8.69896 14.5436 8.8126 14.6838 8.8126Z" fill="white"/>
<path id="Vector_32" d="M14.2203 8.48765C14.3662 8.48765 14.4845 8.3694 14.4845 8.22353C14.4845 8.07766 14.3662 7.95941 14.2203 7.95941C14.0743 7.95941 13.9561 8.07766 13.9561 8.22353C13.9561 8.3694 14.0743 8.48765 14.2203 8.48765Z" fill="white"/>
<path id="Vector_33" d="M13.5084 16.2466C13.571 16.2466 13.6217 16.1958 13.6217 16.1332C13.6217 16.0706 13.571 16.0199 13.5084 16.0199C13.4458 16.0199 13.395 16.0706 13.395 16.1332C13.395 16.1958 13.4458 16.2466 13.5084 16.2466Z" fill="white"/>
<path id="Vector_34" d="M14.5257 16.2531C14.5945 16.2531 14.6503 16.1973 14.6503 16.1285C14.6503 16.0597 14.5945 16.004 14.5257 16.004C14.4569 16.004 14.4011 16.0597 14.4011 16.1285C14.4011 16.1973 14.4569 16.2531 14.5257 16.2531Z" fill="white"/>
<path id="Vector_35" d="M15.6468 16.1229C15.7219 16.1229 15.7827 16.0621 15.7827 15.9871C15.7827 15.9121 15.7219 15.8513 15.6468 15.8513C15.5718 15.8513 15.511 15.9121 15.511 15.9871C15.511 16.0621 15.5718 16.1229 15.6468 16.1229Z" fill="white"/>
<path id="Vector_36" d="M16.6866 15.8065C16.7679 15.8065 16.8337 15.7406 16.8337 15.6594C16.8337 15.5782 16.7679 15.5124 16.6866 15.5124C16.6054 15.5124 16.5396 15.5782 16.5396 15.6594C16.5396 15.7406 16.6054 15.8065 16.6866 15.8065Z" fill="white"/>
<path id="Vector_37" d="M17.5568 15.254C17.6442 15.254 17.7151 15.1831 17.7151 15.0957C17.7151 15.0083 17.6442 14.9374 17.5568 14.9374C17.4693 14.9374 17.3984 15.0083 17.3984 15.0957C17.3984 15.1831 17.4693 15.254 17.5568 15.254Z" fill="white"/>
<path id="Vector_38" d="M18.173 14.4946C18.2666 14.4946 18.3426 14.4187 18.3426 14.325C18.3426 14.2314 18.2666 14.1555 18.173 14.1555C18.0793 14.1555 18.0034 14.2314 18.0034 14.325C18.0034 14.4187 18.0793 14.4946 18.173 14.4946Z" fill="white"/>
<path id="Vector_39" d="M18.5551 13.708C18.6549 13.708 18.7359 13.6271 18.7359 13.5272C18.7359 13.4274 18.6549 13.3465 18.5551 13.3465C18.4552 13.3465 18.3743 13.4274 18.3743 13.5272C18.3743 13.6271 18.4552 13.708 18.5551 13.708Z" fill="white"/>
<path id="Vector_40" d="M18.6959 12.8887C18.8025 12.8887 18.8889 12.8023 18.8889 12.6957C18.8889 12.5892 18.8025 12.5028 18.6959 12.5028C18.5893 12.5028 18.5029 12.5892 18.5029 12.6957C18.5029 12.8023 18.5893 12.8887 18.6959 12.8887Z" fill="white"/>
<path id="Vector_41" d="M18.5785 12.0038C18.6913 12.0038 18.7827 11.9123 18.7827 11.7996C18.7827 11.6868 18.6913 11.5954 18.5785 11.5954C18.4657 11.5954 18.3743 11.6868 18.3743 11.7996C18.3743 11.9123 18.4657 12.0038 18.5785 12.0038Z" fill="white"/>
<path id="Vector_42" d="M18.2482 11.1245C18.3672 11.1245 18.4637 11.0281 18.4637 10.9091C18.4637 10.7901 18.3672 10.6937 18.2482 10.6937C18.1292 10.6937 18.0327 10.7901 18.0327 10.9091C18.0327 11.0281 18.1292 11.1245 18.2482 11.1245Z" fill="white"/>
<path id="Vector_43" d="M17.7589 10.2789C17.8842 10.2789 17.9857 10.1775 17.9857 10.0523C17.9857 9.9271 17.8842 9.82562 17.7589 9.82562C17.6337 9.82562 17.5322 9.9271 17.5322 10.0523C17.5322 10.1775 17.6337 10.2789 17.7589 10.2789Z" fill="white"/>
<path id="Vector_44" d="M17.1691 9.48769C17.3005 9.48769 17.4071 9.38118 17.4071 9.2498C17.4071 9.11841 17.3005 9.0119 17.1691 9.0119C17.0377 9.0119 16.9312 9.11841 16.9312 9.2498C16.9312 9.38118 17.0377 9.48769 17.1691 9.48769Z" fill="white"/>
<path id="Vector_45" d="M16.5319 8.7667C16.6696 8.7667 16.7811 8.65516 16.7811 8.51757C16.7811 8.37997 16.6696 8.26843 16.5319 8.26843C16.3943 8.26843 16.2827 8.37997 16.2827 8.51757C16.2827 8.65516 16.3943 8.7667 16.5319 8.7667Z" fill="white"/>
<path id="Vector_46" d="M15.9045 8.13556C16.0483 8.13556 16.1649 8.01898 16.1649 7.87518C16.1649 7.73138 16.0483 7.61481 15.9045 7.61481C15.7607 7.61481 15.644 7.73138 15.644 7.87518C15.644 8.01898 15.7607 8.13556 15.9045 8.13556Z" fill="white"/>
<path id="Vector_47" d="M15.382 7.65892C15.5321 7.65892 15.6537 7.53731 15.6537 7.38731C15.6537 7.2373 15.5321 7.11569 15.382 7.11569C15.232 7.11569 15.1104 7.2373 15.1104 7.38731C15.1104 7.53731 15.232 7.65892 15.382 7.65892Z" fill="white"/>
<path id="Vector_48" d="M14.9011 7.21417C15.0574 7.21417 15.184 7.08754 15.184 6.93132C15.184 6.77511 15.0574 6.64847 14.9011 6.64847C14.7448 6.64847 14.6182 6.77511 14.6182 6.93132C14.6182 7.08754 14.7448 7.21417 14.9011 7.21417Z" fill="white"/>
<path id="Vector_49" d="M13.9402 16.504C14.0163 16.504 14.0779 16.4424 14.0779 16.3663C14.0779 16.2903 14.0163 16.2287 13.9402 16.2287C13.8641 16.2287 13.8025 16.2903 13.8025 16.3663C13.8025 16.4424 13.8641 16.504 13.9402 16.504Z" fill="white"/>
<path id="Vector_50" d="M15.0155 16.4891C15.0994 16.4891 15.1673 16.4212 15.1673 16.3374C15.1673 16.2536 15.0994 16.1856 15.0155 16.1856C14.9317 16.1856 14.8638 16.2536 14.8638 16.3374C14.8638 16.4212 14.9317 16.4891 15.0155 16.4891Z" fill="white"/>
<path id="Vector_51" d="M16.2837 16.3102C16.3758 16.3102 16.4505 16.2356 16.4505 16.1435C16.4505 16.0514 16.3758 15.9768 16.2837 15.9768C16.1916 15.9768 16.1169 16.0514 16.1169 16.1435C16.1169 16.2356 16.1916 16.3102 16.2837 16.3102Z" fill="white"/>
<path id="Vector_52" d="M17.4377 15.9226C17.5375 15.9226 17.6185 15.8417 17.6185 15.7418C17.6185 15.642 17.5375 15.5611 17.4377 15.5611C17.3378 15.5611 17.2568 15.642 17.2568 15.7418C17.2568 15.8417 17.3378 15.9226 17.4377 15.9226Z" fill="white"/>
<path id="Vector_53" d="M18.3772 15.2531C18.4853 15.2531 18.573 15.1654 18.573 15.0573C18.573 14.9492 18.4853 14.8616 18.3772 14.8616C18.2691 14.8616 18.1814 14.9492 18.1814 15.0573C18.1814 15.1654 18.2691 15.2531 18.3772 15.2531Z" fill="white"/>
<path id="Vector_54" d="M19.0368 14.4431C19.1527 14.4431 19.2466 14.3492 19.2466 14.2333C19.2466 14.1174 19.1527 14.0235 19.0368 14.0235C18.9209 14.0235 18.8269 14.1174 18.8269 14.2333C18.8269 14.3492 18.9209 14.4431 19.0368 14.4431Z" fill="white"/>
<path id="Vector_55" d="M19.4534 13.5825C19.5775 13.5825 19.6782 13.4819 19.6782 13.3577C19.6782 13.2336 19.5775 13.133 19.4534 13.133C19.3292 13.133 19.2285 13.2336 19.2285 13.3577C19.2285 13.4819 19.3292 13.5825 19.4534 13.5825Z" fill="white"/>
<path id="Vector_56" d="M19.6014 12.6508C19.7339 12.6508 19.8413 12.5435 19.8413 12.4111C19.8413 12.2786 19.7339 12.1713 19.6014 12.1713C19.469 12.1713 19.3616 12.2786 19.3616 12.4111C19.3616 12.5435 19.469 12.6508 19.6014 12.6508Z" fill="white"/>
<path id="Vector_57" d="M19.4936 11.6892C19.6339 11.6892 19.7475 11.5755 19.7475 11.4354C19.7475 11.2952 19.6339 11.1815 19.4936 11.1815C19.3534 11.1815 19.2397 11.2952 19.2397 11.4354C19.2397 11.5755 19.3534 11.6892 19.4936 11.6892Z" fill="white"/>
<path id="Vector_58" d="M19.1866 10.7265C19.3351 10.7265 19.4555 10.6062 19.4555 10.4577C19.4555 10.3093 19.3351 10.1889 19.1866 10.1889C19.0381 10.1889 18.9177 10.3093 18.9177 10.4577C18.9177 10.6062 19.0381 10.7265 19.1866 10.7265Z" fill="white"/>
<path id="Vector_59" d="M18.7239 9.78079C18.8801 9.78079 19.0068 9.65415 19.0068 9.49794C19.0068 9.34172 18.8801 9.21509 18.7239 9.21509C18.5676 9.21509 18.4409 9.34172 18.4409 9.49794C18.4409 9.65415 18.5676 9.78079 18.7239 9.78079Z" fill="white"/>
<path id="Vector_60" d="M18.1505 8.87442C18.315 8.87442 18.4484 8.74108 18.4484 8.57659C18.4484 8.41209 18.315 8.27875 18.1505 8.27875C17.9859 8.27875 17.8525 8.41209 17.8525 8.57659C17.8525 8.74108 17.9859 8.87442 18.1505 8.87442Z" fill="white"/>
<path id="Vector_61" d="M17.5109 8.0279C17.6837 8.0279 17.8238 7.88784 17.8238 7.71508C17.8238 7.54231 17.6837 7.40225 17.5109 7.40225C17.3381 7.40225 17.198 7.54231 17.198 7.71508C17.198 7.88784 17.3381 8.0279 17.5109 8.0279Z" fill="white"/>
<path id="Vector_62" d="M16.8485 7.26098C17.029 7.26098 17.1754 7.11464 17.1754 6.93411C17.1754 6.75358 17.029 6.60724 16.8485 6.60724C16.6679 6.60724 16.5215 6.75358 16.5215 6.93411C16.5215 7.11464 16.6679 7.26098 16.8485 7.26098Z" fill="white"/>
<path id="Vector_63" d="M16.2087 6.59521C16.3975 6.59521 16.5506 6.44216 16.5506 6.25336C16.5506 6.06455 16.3975 5.9115 16.2087 5.9115C16.0198 5.9115 15.8667 6.06455 15.8667 6.25336C15.8667 6.44216 16.0198 6.59521 16.2087 6.59521Z" fill="white"/>
<path id="Vector_64" d="M15.6367 6.05023C15.8339 6.05023 15.9937 5.89047 15.9937 5.69339C15.9937 5.49631 15.8339 5.33655 15.6367 5.33655C15.4396 5.33655 15.2798 5.49631 15.2798 5.69339C15.2798 5.89047 15.4396 6.05023 15.6367 6.05023Z" fill="white"/>
<path id="Vector_65" d="M14.3907 16.7719C14.4751 16.7719 14.5435 16.7035 14.5435 16.6192C14.5435 16.5349 14.4751 16.4665 14.3907 16.4665C14.3064 16.4665 14.238 16.5349 14.238 16.6192C14.238 16.7035 14.3064 16.7719 14.3907 16.7719Z" fill="white"/>
<path id="Vector_66" d="M15.5551 16.7129C15.6482 16.7129 15.7237 16.6374 15.7237 16.5443C15.7237 16.4512 15.6482 16.3757 15.5551 16.3757C15.462 16.3757 15.3865 16.4512 15.3865 16.5443C15.3865 16.6374 15.462 16.7129 15.5551 16.7129Z" fill="white"/>
<path id="Vector_67" d="M16.9648 16.4882C17.0668 16.4882 17.1494 16.4056 17.1494 16.3037C17.1494 16.2017 17.0668 16.1191 16.9648 16.1191C16.8629 16.1191 16.7803 16.2017 16.7803 16.3037C16.7803 16.4056 16.8629 16.4882 16.9648 16.4882Z" fill="white"/>
<path id="Vector_68" d="M18.232 16.0153C18.3427 16.0153 18.4325 15.9255 18.4325 15.8148C18.4325 15.7041 18.3427 15.6144 18.232 15.6144C18.1213 15.6144 18.0315 15.7041 18.0315 15.8148C18.0315 15.9255 18.1213 16.0153 18.232 16.0153Z" fill="white"/>
<path id="Vector_69" d="M19.2276 15.2428C19.3472 15.2428 19.4441 15.1459 19.4441 15.0264C19.4441 14.9069 19.3472 14.8101 19.2276 14.8101C19.1081 14.8101 19.0112 14.9069 19.0112 15.0264C19.0112 15.1459 19.1081 15.2428 19.2276 15.2428Z" fill="white"/>
<path id="Vector_70" d="M19.9367 14.3682C20.065 14.3682 20.169 14.2642 20.169 14.1359C20.169 14.0076 20.065 13.9036 19.9367 13.9036C19.8084 13.9036 19.7043 14.0076 19.7043 14.1359C19.7043 14.2642 19.8084 14.3682 19.9367 14.3682Z" fill="white"/>
<path id="Vector_71" d="M20.3752 13.4074C20.5123 13.4074 20.6235 13.2963 20.6235 13.1592C20.6235 13.0222 20.5123 12.911 20.3752 12.911C20.2381 12.911 20.127 13.0222 20.127 13.1592C20.127 13.2963 20.2381 13.4074 20.3752 13.4074Z" fill="white"/>
<path id="Vector_72" d="M20.524 12.3681C20.6699 12.3681 20.7882 12.2498 20.7882 12.1039C20.7882 11.9581 20.6699 11.8398 20.524 11.8398C20.3781 11.8398 20.2598 11.9581 20.2598 12.1039C20.2598 12.2498 20.3781 12.3681 20.524 12.3681Z" fill="white"/>
<path id="Vector_73" d="M20.4276 11.3287C20.5823 11.3287 20.7077 11.2033 20.7077 11.0487C20.7077 10.894 20.5823 10.7686 20.4276 10.7686C20.2729 10.7686 20.1475 10.894 20.1475 11.0487C20.1475 11.2033 20.2729 11.3287 20.4276 11.3287Z" fill="white"/>
<path id="Vector_74" d="M20.1364 10.2705C20.2999 10.2705 20.4324 10.138 20.4324 9.97458C20.4324 9.81113 20.2999 9.67862 20.1364 9.67862C19.9729 9.67862 19.8403 9.81113 19.8403 9.97458C19.8403 10.138 19.9729 10.2705 20.1364 10.2705Z" fill="white"/>
<path id="Vector_75" d="M19.688 9.21527C19.8603 9.21527 19.9999 9.07563 19.9999 8.90338C19.9999 8.73113 19.8603 8.59149 19.688 8.59149C19.5157 8.59149 19.376 8.73113 19.376 8.90338C19.376 9.07563 19.5157 9.21527 19.688 9.21527Z" fill="white"/>
<path id="Vector_76" d="M19.1172 8.18708C19.2983 8.18708 19.4451 8.04032 19.4451 7.85927C19.4451 7.67823 19.2983 7.53146 19.1172 7.53146C18.9361 7.53146 18.7893 7.67823 18.7893 7.85927C18.7893 8.04032 18.9361 8.18708 19.1172 8.18708Z" fill="white"/>
<path id="Vector_77" d="M18.4615 7.20855C18.6514 7.20855 18.8053 7.05466 18.8053 6.86482C18.8053 6.67498 18.6514 6.52109 18.4615 6.52109C18.2716 6.52109 18.1177 6.67498 18.1177 6.86482C18.1177 7.05466 18.2716 7.20855 18.4615 7.20855Z" fill="white"/>
<path id="Vector_78" d="M17.7543 6.30399C17.953 6.30399 18.114 6.14297 18.114 5.94434C18.114 5.74571 17.953 5.58469 17.7543 5.58469C17.5556 5.58469 17.3945 5.74571 17.3945 5.94434C17.3945 6.14297 17.5556 6.30399 17.7543 6.30399Z" fill="white"/>
<path id="Vector_79" d="M17.0332 5.4959C17.2406 5.4959 17.4088 5.32775 17.4088 5.12033C17.4088 4.9129 17.2406 4.74475 17.0332 4.74475C16.8257 4.74475 16.6575 4.9129 16.6575 5.12033C16.6575 5.32775 16.8257 5.4959 17.0332 5.4959Z" fill="white"/>
<path id="Vector_80" d="M16.3333 4.80673C16.5491 4.80673 16.724 4.63187 16.724 4.41617C16.724 4.20046 16.5491 4.0256 16.3333 4.0256C16.1175 4.0256 15.9426 4.20046 15.9426 4.41617C15.9426 4.63187 16.1175 4.80673 16.3333 4.80673Z" fill="white"/>
<path id="Vector_81" d="M14.8676 17.0444C14.9607 17.0444 15.0362 16.9689 15.0362 16.8758C15.0362 16.7827 14.9607 16.7072 14.8676 16.7072C14.7745 16.7072 14.699 16.7827 14.699 16.8758C14.699 16.9689 14.7745 17.0444 14.8676 17.0444Z" fill="white"/>
<path id="Vector_82" d="M16.0908 16.947C16.1932 16.947 16.2763 16.8639 16.2763 16.7615C16.2763 16.6591 16.1932 16.5761 16.0908 16.5761C15.9883 16.5761 15.9053 16.6591 15.9053 16.7615C15.9053 16.8639 15.9883 16.947 16.0908 16.947Z" fill="white"/>
<path id="Vector_83" d="M17.6576 16.6736C17.7699 16.6736 17.8609 16.5826 17.8609 16.4703C17.8609 16.3581 17.7699 16.2671 17.6576 16.2671C17.5454 16.2671 17.4543 16.3581 17.4543 16.4703C17.4543 16.5826 17.5454 16.6736 17.6576 16.6736Z" fill="white"/>
<path id="Vector_84" d="M19.0385 16.1089C19.1601 16.1089 19.2587 16.0104 19.2587 15.8888C19.2587 15.7673 19.1601 15.6687 19.0385 15.6687C18.9169 15.6687 18.8184 15.7673 18.8184 15.8888C18.8184 16.0104 18.9169 16.1089 19.0385 16.1089Z" fill="white"/>
<path id="Vector_85" d="M20.0932 15.2578C20.2241 15.2578 20.3303 15.1517 20.3303 15.0208C20.3303 14.8899 20.2241 14.7838 20.0932 14.7838C19.9623 14.7838 19.8562 14.8899 19.8562 15.0208C19.8562 15.1517 19.9623 15.2578 20.0932 15.2578Z" fill="white"/>
<path id="Vector_86" d="M20.8472 14.3017C20.9874 14.3017 21.101 14.1881 21.101 14.0479C21.101 13.9077 20.9874 13.7941 20.8472 13.7941C20.7069 13.7941 20.5933 13.9077 20.5933 14.0479C20.5933 14.1881 20.7069 14.3017 20.8472 14.3017Z" fill="white"/>
<path id="Vector_87" d="M21.3073 13.2258C21.4574 13.2258 21.579 13.1042 21.579 12.9542C21.579 12.8042 21.4574 12.6826 21.3073 12.6826C21.1573 12.6826 21.0356 12.8042 21.0356 12.9542C21.0356 13.1042 21.1573 13.2258 21.3073 13.2258Z" fill="white"/>
<path id="Vector_88" d="M21.4626 12.0993C21.622 12.0993 21.7512 11.9702 21.7512 11.8108C21.7512 11.6515 21.622 11.5224 21.4626 11.5224C21.3033 11.5224 21.1741 11.6515 21.1741 11.8108C21.1741 11.9702 21.3033 12.0993 21.4626 12.0993Z" fill="white"/>
<path id="Vector_89" d="M21.3801 10.9728C21.5488 10.9728 21.6855 10.8361 21.6855 10.6675C21.6855 10.4989 21.5488 10.3622 21.3801 10.3622C21.2114 10.3622 21.0747 10.4989 21.0747 10.6675C21.0747 10.8361 21.2114 10.9728 21.3801 10.9728Z" fill="white"/>
<path id="Vector_90" d="M21.1057 9.81177C21.2837 9.81177 21.428 9.66752 21.428 9.48958C21.428 9.31164 21.2837 9.16739 21.1057 9.16739C20.9277 9.16739 20.7834 9.31164 20.7834 9.48958C20.7834 9.66752 20.9277 9.81177 21.1057 9.81177Z" fill="white"/>
<path id="Vector_91" d="M20.6672 8.64313C20.8551 8.64313 21.0073 8.49092 21.0073 8.30315C21.0073 8.11538 20.8551 7.96317 20.6672 7.96317C20.4794 7.96317 20.3271 8.11538 20.3271 8.30315C20.3271 8.49092 20.4794 8.64313 20.6672 8.64313Z" fill="white"/>
<path id="Vector_92" d="M20.095 7.4895C20.2921 7.4895 20.4519 7.32974 20.4519 7.13266C20.4519 6.93558 20.2921 6.77582 20.095 6.77582C19.8978 6.77582 19.738 6.93558 19.738 7.13266C19.738 7.32974 19.8978 7.4895 20.095 7.4895Z" fill="white"/>
<path id="Vector_93" d="M19.416 6.37985C19.6225 6.37985 19.7899 6.21254 19.7899 6.00615C19.7899 5.79976 19.6225 5.63245 19.416 5.63245C19.2096 5.63245 19.0422 5.79976 19.0422 6.00615C19.0422 6.21254 19.2096 6.37985 19.416 6.37985Z" fill="white"/>
<path id="Vector_94" d="M18.6602 5.33863C18.8764 5.33863 19.0518 5.16335 19.0518 4.94713C19.0518 4.73091 18.8764 4.55563 18.6602 4.55563C18.4439 4.55563 18.2686 4.73091 18.2686 4.94713C18.2686 5.16335 18.4439 5.33863 18.6602 5.33863Z" fill="white"/>
<path id="Vector_95" d="M17.8555 4.39099C18.0811 4.39099 18.264 4.20816 18.264 3.98264C18.264 3.75711 18.0811 3.57428 17.8555 3.57428C17.6299 3.57428 17.447 3.75711 17.447 3.98264C17.447 4.20816 17.6299 4.39099 17.8555 4.39099Z" fill="white"/>
<path id="Vector_96" d="M17.0303 3.56418C17.2652 3.56418 17.4557 3.3738 17.4557 3.13896C17.4557 2.90412 17.2652 2.71375 17.0303 2.71375C16.7954 2.71375 16.605 2.90412 16.605 3.13896C16.605 3.3738 16.7954 3.56418 17.0303 3.56418Z" fill="white"/>
<path id="Vector_97" d="M15.3396 17.3094C15.4415 17.3094 15.5242 17.2268 15.5242 17.1249C15.5242 17.023 15.4415 16.9404 15.3396 16.9404C15.2377 16.9404 15.155 17.023 15.155 17.1249C15.155 17.2268 15.2377 17.3094 15.3396 17.3094Z" fill="white"/>
<path id="Vector_98" d="M16.6435 17.1933C16.7553 17.1933 16.8459 17.1027 16.8459 16.991C16.8459 16.8792 16.7553 16.7887 16.6435 16.7887C16.5318 16.7887 16.4412 16.8792 16.4412 16.991C16.4412 17.1027 16.5318 17.1933 16.6435 17.1933Z" fill="white"/>
<path id="Vector_99" d="M18.3603 16.8627C18.4824 16.8627 18.5814 16.7638 18.5814 16.6417C18.5814 16.5196 18.4824 16.4207 18.3603 16.4207C18.2382 16.4207 18.1392 16.5196 18.1392 16.6417C18.1392 16.7638 18.2382 16.8627 18.3603 16.8627Z" fill="white"/>
<path id="Vector_100" d="M19.8543 16.2026C19.9868 16.2026 20.0942 16.0952 20.0942 15.9628C20.0942 15.8304 19.9868 15.7231 19.8543 15.7231C19.7219 15.7231 19.6145 15.8304 19.6145 15.9628C19.6145 16.0952 19.7219 16.2026 19.8543 16.2026Z" fill="white"/>
<path id="Vector_101" d="M20.9642 15.2877C21.1065 15.2877 21.2218 15.1724 21.2218 15.0302C21.2218 14.8879 21.1065 14.7726 20.9642 14.7726C20.8219 14.7726 20.7065 14.8879 20.7065 15.0302C20.7065 15.1724 20.8219 15.2877 20.9642 15.2877Z" fill="white"/>
<path id="Vector_102" d="M21.7615 14.238C21.9141 14.238 22.0379 14.1143 22.0379 13.9618C22.0379 13.8092 21.9141 13.6855 21.7615 13.6855C21.6088 13.6855 21.4851 13.8092 21.4851 13.9618C21.4851 14.1143 21.6088 14.238 21.7615 14.238Z" fill="white"/>
<path id="Vector_103" d="M22.2449 13.0385C22.4073 13.0385 22.539 12.9069 22.539 12.7444C22.539 12.582 22.4073 12.4503 22.2449 12.4503C22.0824 12.4503 21.9507 12.582 21.9507 12.7444C21.9507 12.9069 22.0824 13.0385 22.2449 13.0385Z" fill="white"/>
<path id="Vector_104" d="M22.4115 11.839C22.5844 11.839 22.7245 11.6989 22.7245 11.5262C22.7245 11.3534 22.5844 11.2133 22.4115 11.2133C22.2387 11.2133 22.0986 11.3534 22.0986 11.5262C22.0986 11.6989 22.2387 11.839 22.4115 11.839Z" fill="white"/>
<path id="Vector_105" d="M22.3478 10.6198C22.5309 10.6198 22.6794 10.4714 22.6794 10.2883C22.6794 10.1052 22.5309 9.95673 22.3478 9.95673C22.1646 9.95673 22.0161 10.1052 22.0161 10.2883C22.0161 10.4714 22.1646 10.6198 22.3478 10.6198Z" fill="white"/>
<path id="Vector_106" d="M22.0892 9.35291C22.2822 9.35291 22.4387 9.1965 22.4387 9.00356C22.4387 8.81062 22.2822 8.65421 22.0892 8.65421C21.8962 8.65421 21.7397 8.81062 21.7397 9.00356C21.7397 9.1965 21.8962 9.35291 22.0892 9.35291Z" fill="white"/>
<path id="Vector_107" d="M21.6592 8.0663C21.8626 8.0663 22.0274 7.90151 22.0274 7.69822C22.0274 7.49494 21.8626 7.33014 21.6592 7.33014C21.4559 7.33014 21.291 7.49494 21.291 7.69822C21.291 7.90151 21.4559 8.0663 21.6592 8.0663Z" fill="white"/>
<path id="Vector_108" d="M21.0805 6.78812C21.2942 6.78812 21.4675 6.61494 21.4675 6.40131C21.4675 6.18768 21.2942 6.0145 21.0805 6.0145C20.8668 6.0145 20.6936 6.18768 20.6936 6.40131C20.6936 6.61494 20.8668 6.78812 21.0805 6.78812Z" fill="white"/>
<path id="Vector_109" d="M20.3754 5.54555C20.599 5.54555 20.7802 5.3644 20.7802 5.14094C20.7802 4.91748 20.599 4.73633 20.3754 4.73633C20.1519 4.73633 19.9707 4.91748 19.9707 5.14094C19.9707 5.3644 20.1519 5.54555 20.3754 5.54555Z" fill="white"/>
<path id="Vector_110" d="M19.566 4.36945C19.7999 4.36945 19.9895 4.17991 19.9895 3.94611C19.9895 3.7123 19.7999 3.52277 19.566 3.52277C19.3322 3.52277 19.1426 3.7123 19.1426 3.94611C19.1426 4.17991 19.3322 4.36945 19.566 4.36945Z" fill="white"/>
<path id="Vector_111" d="M18.6751 3.28515C18.9193 3.28515 19.1173 3.08723 19.1173 2.84307C19.1173 2.59892 18.9193 2.401 18.6751 2.401C18.4309 2.401 18.2329 2.59892 18.2329 2.84307C18.2329 3.08723 18.4309 3.28515 18.6751 3.28515Z" fill="white"/>
<path id="Vector_112" d="M17.7264 2.32251C17.9804 2.32251 18.1864 2.11662 18.1864 1.86264C18.1864 1.60866 17.9804 1.40277 17.7264 1.40277C17.4723 1.40277 17.2664 1.60866 17.2664 1.86264C17.2664 2.11662 17.4723 2.32251 17.7264 2.32251Z" fill="white"/>
<path id="Vector_113" d="M15.868 17.5959C15.9787 17.5959 16.0685 17.5062 16.0685 17.3955C16.0685 17.2848 15.9787 17.195 15.868 17.195C15.7572 17.195 15.6675 17.2848 15.6675 17.3955C15.6675 17.5062 15.7572 17.5959 15.868 17.5959Z" fill="white"/>
<path id="Vector_114" d="M17.2065 17.4152C17.3281 17.4152 17.4267 17.3167 17.4267 17.1951C17.4267 17.0735 17.3281 16.975 17.2065 16.975C17.0849 16.975 16.9863 17.0735 16.9863 17.1951C16.9863 17.3167 17.0849 17.4152 17.2065 17.4152Z" fill="white"/>
<path id="Vector_115" d="M19.0685 17.0575C19.2004 17.0575 19.3074 16.9506 19.3074 16.8187C19.3074 16.6868 19.2004 16.5799 19.0685 16.5799C18.9366 16.5799 18.8296 16.6868 18.8296 16.8187C18.8296 16.9506 18.9366 17.0575 19.0685 17.0575Z" fill="white"/>
<path id="Vector_116" d="M20.6646 16.3075C20.8074 16.3075 20.9232 16.1917 20.9232 16.049C20.9232 15.9062 20.8074 15.7905 20.6646 15.7905C20.5218 15.7905 20.406 15.9062 20.406 16.049C20.406 16.1917 20.5218 16.3075 20.6646 16.3075Z" fill="white"/>
<path id="Vector_117" d="M21.8383 15.3261C21.992 15.3261 22.1166 15.2016 22.1166 15.048C22.1166 14.8943 21.992 14.7698 21.8383 14.7698C21.6846 14.7698 21.5601 14.8943 21.5601 15.048C21.5601 15.2016 21.6846 15.3261 21.8383 15.3261Z" fill="white"/>
<path id="Vector_118" d="M22.6773 14.1725C22.8419 14.1725 22.9752 14.0392 22.9752 13.8747C22.9752 13.7102 22.8419 13.5768 22.6773 13.5768C22.5128 13.5768 22.3794 13.7102 22.3794 13.8747C22.3794 14.0392 22.5128 14.1725 22.6773 14.1725Z" fill="white"/>
<path id="Vector_119" d="M23.1889 12.8475C23.3643 12.8475 23.5065 12.7053 23.5065 12.53C23.5065 12.3546 23.3643 12.2125 23.1889 12.2125C23.0135 12.2125 22.8713 12.3546 22.8713 12.53C22.8713 12.7053 23.0135 12.8475 23.1889 12.8475Z" fill="white"/>
<path id="Vector_120" d="M23.3697 11.5853C23.556 11.5853 23.707 11.4343 23.707 11.2481C23.707 11.0619 23.556 10.9109 23.3697 10.9109C23.1835 10.9109 23.0325 11.0619 23.0325 11.2481C23.0325 11.4343 23.1835 11.5853 23.3697 11.5853Z" fill="white"/>
<path id="Vector_121" d="M23.3257 10.2678C23.5228 10.2678 23.6826 10.108 23.6826 9.91095C23.6826 9.71387 23.5228 9.55411 23.3257 9.55411C23.1286 9.55411 22.9688 9.71387 22.9688 9.91095C22.9688 10.108 23.1286 10.2678 23.3257 10.2678Z" fill="white"/>
<path id="Vector_122" d="M23.0832 8.8913C23.2912 8.8913 23.4598 8.72273 23.4598 8.51479C23.4598 8.30684 23.2912 8.13828 23.0832 8.13828C22.8752 8.13828 22.7065 8.30684 22.7065 8.51479C22.7065 8.72273 22.8752 8.8913 23.0832 8.8913Z" fill="white"/>
<path id="Vector_123" d="M22.6587 7.48578C22.8776 7.48578 23.055 7.3084 23.055 7.0896C23.055 6.8708 22.8776 6.69342 22.6587 6.69342C22.4399 6.69342 22.2625 6.8708 22.2625 7.0896C22.2625 7.3084 22.4399 7.48578 22.6587 7.48578Z" fill="white"/>
<path id="Vector_124" d="M22.0705 6.08118C22.3002 6.08118 22.4865 5.895 22.4865 5.66533C22.4865 5.43566 22.3002 5.24948 22.0705 5.24948C21.8408 5.24948 21.6545 5.43566 21.6545 5.66533C21.6545 5.895 21.8408 6.08118 22.0705 6.08118Z" fill="white"/>
<path id="Vector_125" d="M21.3363 4.70749C21.5769 4.70749 21.7719 4.5125 21.7719 4.27197C21.7719 4.03144 21.5769 3.83646 21.3363 3.83646C21.0957 3.83646 20.9006 4.03144 20.9006 4.27197C20.9006 4.5125 21.0957 4.70749 21.3363 4.70749Z" fill="white"/>
<path id="Vector_126" d="M20.4717 3.3956C20.7231 3.3956 20.927 3.19181 20.927 2.94042C20.927 2.68902 20.7231 2.48523 20.4717 2.48523C20.2202 2.48523 20.0164 2.68902 20.0164 2.94042C20.0164 3.19181 20.2202 3.3956 20.4717 3.3956Z" fill="white"/>
<path id="Vector_127" d="M19.495 2.17642C19.7573 2.17642 19.97 1.96382 19.97 1.70157C19.97 1.43931 19.7573 1.22672 19.495 1.22672C19.2327 1.22672 19.02 1.43931 19.02 1.70157C19.02 1.96382 19.2327 2.17642 19.495 2.17642Z" fill="white"/>
<path id="Vector_128" d="M18.4234 1.07993C18.6966 1.07993 18.918 0.858522 18.918 0.585404C18.918 0.312287 18.6966 0.0908813 18.4234 0.0908813C18.1502 0.0908813 17.9287 0.312287 17.9287 0.585404C17.9287 0.858522 18.1502 1.07993 18.4234 1.07993Z" fill="white"/>
<path id="Vector_129" d="M10.8681 15.5508C10.8898 15.5508 10.9075 15.5331 10.9075 15.5114C10.9075 15.4897 10.8898 15.4721 10.8681 15.4721C10.8463 15.4721 10.8286 15.4897 10.8286 15.5114C10.8286 15.5331 10.8463 15.5508 10.8681 15.5508Z" fill="white"/>
<path id="Vector_130" d="M10.8099 15.6659C10.8358 15.6659 10.8569 15.645 10.8569 15.6191C10.8569 15.5932 10.8358 15.5723 10.8099 15.5723C10.784 15.5723 10.7629 15.5932 10.7629 15.6191C10.7629 15.645 10.784 15.6659 10.8099 15.6659Z" fill="white"/>
<path id="Vector_131" d="M11.4658 15.6996C11.5036 15.6996 11.5343 15.669 11.5343 15.6313C11.5343 15.5935 11.5036 15.5629 11.4658 15.5629C11.4279 15.5629 11.3972 15.5935 11.3972 15.6313C11.3972 15.669 11.4279 15.6996 11.4658 15.6996Z" fill="white"/>
<path id="Vector_132" d="M11.9819 15.7858C12.026 15.7858 12.0618 15.7502 12.0618 15.7062C12.0618 15.6623 12.026 15.6266 11.9819 15.6266C11.9378 15.6266 11.9021 15.6623 11.9021 15.7062C11.9021 15.7502 11.9378 15.7858 11.9819 15.7858Z" fill="white"/>
<path id="Vector_133" d="M10.7509 15.7905C10.783 15.7905 10.8091 15.7645 10.8091 15.7324C10.8091 15.7003 10.783 15.6743 10.7509 15.6743C10.7187 15.6743 10.6926 15.7003 10.6926 15.7324C10.6926 15.7645 10.7187 15.7905 10.7509 15.7905Z" fill="white"/>
<path id="Vector_134" d="M11.6746 15.9197C11.7186 15.9197 11.7544 15.884 11.7544 15.8401C11.7544 15.7961 11.7186 15.7605 11.6746 15.7605C11.6305 15.7605 11.5947 15.7961 11.5947 15.8401C11.5947 15.884 11.6305 15.9197 11.6746 15.9197Z" fill="white"/>
<path id="Vector_135" d="M12.2948 16.0227C12.3445 16.0227 12.3849 15.9825 12.3849 15.9328C12.3849 15.8832 12.3445 15.8429 12.2948 15.8429C12.245 15.8429 12.2046 15.8832 12.2046 15.9328C12.2046 15.9825 12.245 16.0227 12.2948 16.0227Z" fill="white"/>
<path id="Vector_136" d="M10.6789 15.9272C10.7168 15.9272 10.7475 15.8966 10.7475 15.8588C10.7475 15.8211 10.7168 15.7905 10.6789 15.7905C10.641 15.7905 10.6104 15.8211 10.6104 15.8588C10.6104 15.8966 10.641 15.9272 10.6789 15.9272Z" fill="white"/>
<path id="Vector_137" d="M11.8826 16.1398C11.9329 16.1398 11.9737 16.0991 11.9737 16.0489C11.9737 15.9987 11.9329 15.9581 11.8826 15.9581C11.8323 15.9581 11.7915 15.9987 11.7915 16.0489C11.7915 16.0991 11.8323 16.1398 11.8826 16.1398Z" fill="white"/>
<path id="Vector_138" d="M12.6065 16.2615C12.6629 16.2615 12.7086 16.2158 12.7086 16.1594C12.7086 16.103 12.6629 16.0573 12.6065 16.0573C12.5501 16.0573 12.5044 16.103 12.5044 16.1594C12.5044 16.2158 12.5501 16.2615 12.6065 16.2615Z" fill="white"/>
<path id="Vector_139" d="M10.5974 16.0836C10.6415 16.0836 10.6772 16.0479 10.6772 16.004C10.6772 15.96 10.6415 15.9243 10.5974 15.9243C10.5533 15.9243 10.5176 15.96 10.5176 16.004C10.5176 16.0479 10.5533 16.0836 10.5974 16.0836Z" fill="white"/>
<path id="Vector_140" d="M12.0913 16.3664C12.1514 16.3664 12.2 16.3178 12.2 16.2578C12.2 16.1977 12.1514 16.1491 12.0913 16.1491C12.0313 16.1491 11.9827 16.1977 11.9827 16.2578C11.9827 16.3178 12.0313 16.3664 12.0913 16.3664Z" fill="white"/>
<path id="Vector_141" d="M12.9184 16.5087C12.9862 16.5087 13.0411 16.4538 13.0411 16.386C13.0411 16.3183 12.9862 16.2633 12.9184 16.2633C12.8506 16.2633 12.7957 16.3183 12.7957 16.386C12.7957 16.4538 12.8506 16.5087 12.9184 16.5087Z" fill="white"/>
<path id="Vector_142" d="M10.5133 16.255C10.5631 16.255 10.6034 16.2147 10.6034 16.165C10.6034 16.1154 10.5631 16.0751 10.5133 16.0751C10.4635 16.0751 10.4231 16.1154 10.4231 16.165C10.4231 16.2147 10.4635 16.255 10.5133 16.255Z" fill="white"/>
<path id="Vector_143" d="M12.2881 16.5818C12.3553 16.5818 12.4098 16.5273 12.4098 16.46C12.4098 16.3928 12.3553 16.3383 12.2881 16.3383C12.2208 16.3383 12.1663 16.3928 12.1663 16.46C12.1663 16.5273 12.2208 16.5818 12.2881 16.5818Z" fill="white"/>
<path id="Vector_144" d="M13.2302 16.7494C13.3063 16.7494 13.368 16.6877 13.368 16.6117C13.368 16.5357 13.3063 16.474 13.2302 16.474C13.1542 16.474 13.0925 16.5357 13.0925 16.6117C13.0925 16.6877 13.1542 16.7494 13.2302 16.7494Z" fill="white"/>
<path id="Vector_145" d="M10.4156 16.4338C10.4715 16.4338 10.5168 16.3885 10.5168 16.3327C10.5168 16.2768 10.4715 16.2315 10.4156 16.2315C10.3598 16.2315 10.3145 16.2768 10.3145 16.3327C10.3145 16.3885 10.3598 16.4338 10.4156 16.4338Z" fill="white"/>
<path id="Vector_146" d="M12.497 16.8C12.5715 16.8 12.6319 16.7396 12.6319 16.6651C12.6319 16.5906 12.5715 16.5302 12.497 16.5302C12.4225 16.5302 12.3621 16.5906 12.3621 16.6651C12.3621 16.7396 12.4225 16.8 12.497 16.8Z" fill="white"/>
<path id="Vector_147" d="M13.5422 16.99C13.626 16.99 13.6939 16.9221 13.6939 16.8383C13.6939 16.7545 13.626 16.6866 13.5422 16.6866C13.4583 16.6866 13.3904 16.7545 13.3904 16.8383C13.3904 16.9221 13.4583 16.99 13.5422 16.99Z" fill="white"/>
<path id="Vector_148" d="M10.3219 16.6211C10.3835 16.6211 10.4334 16.5712 10.4334 16.5096C10.4334 16.4481 10.3835 16.3982 10.3219 16.3982C10.2604 16.3982 10.2104 16.4481 10.2104 16.5096C10.2104 16.5712 10.2604 16.6211 10.3219 16.6211Z" fill="white"/>
<path id="Vector_149" d="M12.702 17.0219C12.7837 17.0219 12.85 16.9556 12.85 16.8739C12.85 16.7922 12.7837 16.7259 12.702 16.7259C12.6202 16.7259 12.554 16.7922 12.554 16.8739C12.554 16.9556 12.6202 17.0219 12.702 17.0219Z" fill="white"/>
<path id="Vector_150" d="M13.855 17.2307C13.9466 17.2307 14.0209 17.1565 14.0209 17.0649C14.0209 16.9734 13.9466 16.8991 13.855 16.8991C13.7635 16.8991 13.6892 16.9734 13.6892 17.0649C13.6892 17.1565 13.7635 17.2307 13.855 17.2307Z" fill="white"/>
<path id="Vector_151" d="M12.9268 17.2532C13.0158 17.2532 13.0879 17.1811 13.0879 17.0921C13.0879 17.0031 13.0158 16.931 12.9268 16.931C12.8378 16.931 12.7656 17.0031 12.7656 17.0921C12.7656 17.1811 12.8378 17.2532 12.9268 17.2532Z" fill="white"/>
<path id="Vector_152" d="M14.1669 17.4723C14.2668 17.4723 14.3477 17.3914 14.3477 17.2915C14.3477 17.1917 14.2668 17.1108 14.1669 17.1108C14.067 17.1108 13.9861 17.1917 13.9861 17.2915C13.9861 17.3914 14.067 17.4723 14.1669 17.4723Z" fill="white"/>
<path id="Vector_153" d="M11.063 15.6566C11.0905 15.6566 11.1127 15.6343 11.1127 15.6069C11.1127 15.5795 11.0905 15.5573 11.063 15.5573C11.0355 15.5573 11.0132 15.5795 11.0132 15.6069C11.0132 15.6343 11.0355 15.6566 11.063 15.6566Z" fill="white"/>
<path id="Vector_154" d="M11.2561 15.9656C11.2939 15.9656 11.3246 15.935 11.3246 15.8972C11.3246 15.8595 11.2939 15.8289 11.2561 15.8289C11.2182 15.8289 11.1875 15.8595 11.1875 15.8972C11.1875 15.935 11.2182 15.9656 11.2561 15.9656Z" fill="white"/>
<path id="Vector_155" d="M11.3796 16.1594C11.4237 16.1594 11.4595 16.1238 11.4595 16.0798C11.4595 16.0359 11.4237 16.0002 11.3796 16.0002C11.3355 16.0002 11.2998 16.0359 11.2998 16.0798C11.2998 16.1238 11.3355 16.1594 11.3796 16.1594Z" fill="white"/>
<path id="Vector_156" d="M11.5004 16.372C11.5523 16.372 11.5943 16.3301 11.5943 16.2784C11.5943 16.2266 11.5523 16.1847 11.5004 16.1847C11.4485 16.1847 11.4065 16.2266 11.4065 16.2784C11.4065 16.3301 11.4485 16.372 11.5004 16.372Z" fill="white"/>
<path id="Vector_157" d="M11.6276 16.5696C11.6861 16.5696 11.7335 16.5222 11.7335 16.4637C11.7335 16.4053 11.6861 16.3579 11.6276 16.3579C11.5691 16.3579 11.5217 16.4053 11.5217 16.4637C11.5217 16.5222 11.5691 16.5696 11.6276 16.5696Z" fill="white"/>
<path id="Vector_158" d="M11.7523 16.7794C11.8175 16.7794 11.8704 16.7265 11.8704 16.6613C11.8704 16.5962 11.8175 16.5433 11.7523 16.5433C11.6871 16.5433 11.6343 16.5962 11.6343 16.6613C11.6343 16.7265 11.6871 16.7794 11.7523 16.7794Z" fill="white"/>
<path id="Vector_159" d="M11.8851 17.0088C11.957 17.0088 12.0153 16.9505 12.0153 16.8786C12.0153 16.8067 11.957 16.7484 11.8851 16.7484C11.8132 16.7484 11.7549 16.8067 11.7549 16.8786C11.7549 16.9505 11.8132 17.0088 11.8851 17.0088Z" fill="white"/>
<path id="Vector_160" d="M11.1601 15.8092C11.1948 15.8092 11.223 15.7811 11.223 15.7465C11.223 15.7118 11.1948 15.6837 11.1601 15.6837C11.1253 15.6837 11.0972 15.7118 11.0972 15.7465C11.0972 15.7811 11.1253 15.8092 11.1601 15.8092Z" fill="white"/>
<path id="Vector_161" d="M10.9777 15.9094C11.0098 15.9094 11.0359 15.8834 11.0359 15.8513C11.0359 15.8192 11.0098 15.7932 10.9777 15.7932C10.9455 15.7932 10.9194 15.8192 10.9194 15.8513C10.9194 15.8834 10.9455 15.9094 10.9777 15.9094Z" fill="white"/>
<path id="Vector_162" d="M11.0114 16.078C11.0493 16.078 11.08 16.0474 11.08 16.0096C11.08 15.9718 11.0493 15.9412 11.0114 15.9412C10.9736 15.9412 10.9429 15.9718 10.9429 16.0096C10.9429 16.0474 10.9736 16.078 11.0114 16.078Z" fill="white"/>
<path id="Vector_163" d="M11.052 16.2896C11.0961 16.2896 11.1318 16.2539 11.1318 16.21C11.1318 16.166 11.0961 16.1303 11.052 16.1303C11.0079 16.1303 10.9722 16.166 10.9722 16.21C10.9722 16.2539 11.0079 16.2896 11.052 16.2896Z" fill="white"/>
<path id="Vector_164" d="M11.0948 16.4872C11.1446 16.4872 11.185 16.4469 11.185 16.3973C11.185 16.3476 11.1446 16.3073 11.0948 16.3073C11.045 16.3073 11.0046 16.3476 11.0046 16.3973C11.0046 16.4469 11.045 16.4872 11.0948 16.4872Z" fill="white"/>
<path id="Vector_165" d="M11.131 16.695C11.1868 16.695 11.2321 16.6498 11.2321 16.5939C11.2321 16.538 11.1868 16.4927 11.131 16.4927C11.0751 16.4927 11.0298 16.538 11.0298 16.5939C11.0298 16.6498 11.0751 16.695 11.131 16.695Z" fill="white"/>
<path id="Vector_166" d="M11.1715 16.9217C11.2331 16.9217 11.283 16.8718 11.283 16.8102C11.283 16.7487 11.2331 16.6988 11.1715 16.6988C11.11 16.6988 11.0601 16.7487 11.0601 16.8102C11.0601 16.8718 11.11 16.9217 11.1715 16.9217Z" fill="white"/>
<path id="Vector_167" d="M10.9307 15.6566C10.9567 15.6566 10.9777 15.6356 10.9777 15.6097C10.9777 15.5839 10.9567 15.5629 10.9307 15.5629C10.9048 15.5629 10.8838 15.5839 10.8838 15.6097C10.8838 15.6356 10.9048 15.6566 10.9307 15.6566Z" fill="white"/>
<path id="Vector_168" d="M10.9522 15.7765C10.9823 15.7765 11.0067 15.7521 11.0067 15.7221C11.0067 15.6921 10.9823 15.6678 10.9522 15.6678C10.9221 15.6678 10.8977 15.6921 10.8977 15.7221C10.8977 15.7521 10.9221 15.7765 10.9522 15.7765Z" fill="white"/>
<path id="Vector_169" d="M11.9002 6.33479C11.95 6.33479 11.9904 6.29454 11.9904 6.24488C11.9904 6.19522 11.95 6.15497 11.9002 6.15497C11.8504 6.15497 11.8101 6.19522 11.8101 6.24488C11.8101 6.29454 11.8504 6.33479 11.9002 6.33479Z" fill="white"/>
<path id="Vector_170" d="M11.0738 6.3292C11.1297 6.3292 11.175 6.28391 11.175 6.22804C11.175 6.17218 11.1297 6.12689 11.0738 6.12689C11.018 6.12689 10.9727 6.17218 10.9727 6.22804C10.9727 6.28391 11.018 6.3292 11.0738 6.3292Z" fill="white"/>
<path id="Vector_171" d="M10.2255 6.40788C10.2871 6.40788 10.337 6.35798 10.337 6.29642C10.337 6.23487 10.2871 6.18497 10.2255 6.18497C10.1639 6.18497 10.114 6.23487 10.114 6.29642C10.114 6.35798 10.1639 6.40788 10.2255 6.40788Z" fill="white"/>
<path id="Vector_172" d="M9.41423 6.60638C9.48202 6.60638 9.53696 6.55145 9.53696 6.48369C9.53696 6.41592 9.48202 6.36099 9.41423 6.36099C9.34645 6.36099 9.2915 6.41592 9.2915 6.48369C9.2915 6.55145 9.34645 6.60638 9.41423 6.60638Z" fill="white"/>
<path id="Vector_173" d="M8.69969 6.95377C8.77316 6.95377 8.83272 6.89422 8.83272 6.82077C8.83272 6.74732 8.77316 6.68777 8.69969 6.68777C8.62621 6.68777 8.56665 6.74732 8.56665 6.82077C8.56665 6.89422 8.62621 6.95377 8.69969 6.95377Z" fill="white"/>
<path id="Vector_174" d="M8.14037 7.48656C8.22005 7.48656 8.28465 7.42198 8.28465 7.34233C8.28465 7.26267 8.22005 7.19809 8.14037 7.19809C8.06069 7.19809 7.99609 7.26267 7.99609 7.34233C7.99609 7.42198 8.06069 7.48656 8.14037 7.48656Z" fill="white"/>
<path id="Vector_175" d="M7.78077 8.26752C7.86666 8.26752 7.93629 8.19792 7.93629 8.11205C7.93629 8.02618 7.86666 7.95657 7.78077 7.95657C7.69487 7.95657 7.62524 8.02618 7.62524 8.11205C7.62524 8.19792 7.69487 8.26752 7.78077 8.26752Z" fill="white"/>
<path id="Vector_176" d="M7.71148 9.11497C7.80306 9.11497 7.87731 9.04075 7.87731 8.94919C7.87731 8.85764 7.80306 8.78342 7.71148 8.78342C7.6199 8.78342 7.54565 8.85764 7.54565 8.94919C7.54565 9.04075 7.6199 9.11497 7.71148 9.11497Z" fill="white"/>
<path id="Vector_177" d="M7.92219 9.89218C8.01998 9.89218 8.09925 9.81293 8.09925 9.71516C8.09925 9.6174 8.01998 9.53815 7.92219 9.53815C7.82439 9.53815 7.74512 9.6174 7.74512 9.71516C7.74512 9.81293 7.82439 9.89218 7.92219 9.89218Z" fill="white"/>
<path id="Vector_178" d="M8.33996 10.5907C8.44345 10.5907 8.52734 10.5069 8.52734 10.4034C8.52734 10.3 8.44345 10.2161 8.33996 10.2161C8.23648 10.2161 8.15259 10.3 8.15259 10.4034C8.15259 10.5069 8.23648 10.5907 8.33996 10.5907Z" fill="white"/>
<path id="Vector_179" d="M8.89246 11.2041C9.00216 11.2041 9.09108 11.1152 9.09108 11.0055C9.09108 10.8958 9.00216 10.8069 8.89246 10.8069C8.78277 10.8069 8.69385 10.8958 8.69385 11.0055C8.69385 11.1152 8.78277 11.2041 8.89246 11.2041Z" fill="white"/>
<path id="Vector_180" d="M9.50795 11.7247C9.62386 11.7247 9.71781 11.6308 9.71781 11.5149C9.71781 11.3991 9.62386 11.3051 9.50795 11.3051C9.39205 11.3051 9.2981 11.3991 9.2981 11.5149C9.2981 11.6308 9.39205 11.7247 9.50795 11.7247Z" fill="white"/>
<path id="Vector_181" d="M10.113 12.1442C10.2346 12.1442 10.3332 12.0457 10.3332 11.9241C10.3332 11.8026 10.2346 11.704 10.113 11.704C9.99139 11.704 9.89282 11.8026 9.89282 11.9241C9.89282 12.0457 9.99139 12.1442 10.113 12.1442Z" fill="white"/>
<path id="Vector_182" d="M10.6142 12.4889C10.742 12.4889 10.8456 12.3853 10.8456 12.2575C10.8456 12.1298 10.742 12.0262 10.6142 12.0262C10.4864 12.0262 10.3828 12.1298 10.3828 12.2575C10.3828 12.3853 10.4864 12.4889 10.6142 12.4889Z" fill="white"/>
<path id="Vector_183" d="M11.1255 12.7707C11.259 12.7707 11.3672 12.6625 11.3672 12.529C11.3672 12.3956 11.259 12.2874 11.1255 12.2874C10.992 12.2874 10.8838 12.3956 10.8838 12.529C10.8838 12.6625 10.992 12.7707 11.1255 12.7707Z" fill="white"/>
<path id="Vector_184" d="M11.5592 6.15876C11.6151 6.15876 11.6604 6.11347 11.6604 6.0576C11.6604 6.00174 11.6151 5.95645 11.5592 5.95645C11.5033 5.95645 11.458 6.00174 11.458 6.0576C11.458 6.11347 11.5033 6.15876 11.5592 6.15876Z" fill="white"/>
<path id="Vector_185" d="M10.6447 6.16438C10.7063 6.16438 10.7562 6.11448 10.7562 6.05292C10.7562 5.99137 10.7063 5.94147 10.6447 5.94147C10.5831 5.94147 10.5332 5.99137 10.5332 6.05292C10.5332 6.11448 10.5831 6.16438 10.6447 6.16438Z" fill="white"/>
<path id="Vector_186" d="M9.66521 6.27862C9.73299 6.27862 9.78794 6.22369 9.78794 6.15593C9.78794 6.08817 9.73299 6.03323 9.66521 6.03323C9.59743 6.03323 9.54248 6.08817 9.54248 6.15593C9.54248 6.22369 9.59743 6.27862 9.66521 6.27862Z" fill="white"/>
<path id="Vector_187" d="M8.74066 6.54176C8.81465 6.54176 8.87463 6.4818 8.87463 6.40783C8.87463 6.33386 8.81465 6.2739 8.74066 6.2739C8.66667 6.2739 8.60669 6.33386 8.60669 6.40783C8.60669 6.4818 8.66667 6.54176 8.74066 6.54176Z" fill="white"/>
<path id="Vector_188" d="M7.94555 6.99495C8.02523 6.99495 8.08983 6.93038 8.08983 6.85072C8.08983 6.77106 8.02523 6.70648 7.94555 6.70648C7.86587 6.70648 7.80127 6.77106 7.80127 6.85072C7.80127 6.93038 7.86587 6.99495 7.94555 6.99495Z" fill="white"/>
<path id="Vector_189" d="M7.35157 7.67762C7.43746 7.67762 7.50709 7.60801 7.50709 7.52214C7.50709 7.43628 7.43746 7.36667 7.35157 7.36667C7.26567 7.36667 7.19604 7.43628 7.19604 7.52214C7.19604 7.60801 7.26567 7.67762 7.35157 7.67762Z" fill="white"/>
<path id="Vector_190" d="M7.00421 8.4286C7.09579 8.4286 7.17003 8.35438 7.17003 8.26282C7.17003 8.17127 7.09579 8.09705 7.00421 8.09705C6.91262 8.09705 6.83838 8.17127 6.83838 8.26282C6.83838 8.35438 6.91262 8.4286 7.00421 8.4286Z" fill="white"/>
<path id="Vector_191" d="M6.87214 9.17493C6.96993 9.17493 7.04921 9.09567 7.04921 8.99791C7.04921 8.90015 6.96993 8.82089 6.87214 8.82089C6.77434 8.82089 6.69507 8.90015 6.69507 8.99791C6.69507 9.09567 6.77434 9.17493 6.87214 9.17493Z" fill="white"/>
<path id="Vector_192" d="M6.97249 9.96617C7.07649 9.96617 7.1608 9.88189 7.1608 9.77792C7.1608 9.67395 7.07649 9.58966 6.97249 9.58966C6.86849 9.58966 6.78418 9.67395 6.78418 9.77792C6.78418 9.88189 6.86849 9.96617 6.97249 9.96617Z" fill="white"/>
<path id="Vector_193" d="M7.31434 10.7977C7.42403 10.7977 7.51296 10.7088 7.51296 10.5991C7.51296 10.4895 7.42403 10.4006 7.31434 10.4006C7.20465 10.4006 7.11572 10.4895 7.11572 10.5991C7.11572 10.7088 7.20465 10.7977 7.31434 10.7977Z" fill="white"/>
<path id="Vector_194" d="M7.82558 11.5711C7.94148 11.5711 8.03544 11.4772 8.03544 11.3613C8.03544 11.2455 7.94148 11.1516 7.82558 11.1516C7.70968 11.1516 7.61572 11.2455 7.61572 11.3613C7.61572 11.4772 7.70968 11.5711 7.82558 11.5711Z" fill="white"/>
<path id="Vector_195" d="M8.43643 12.2697C8.55855 12.2697 8.65754 12.1707 8.65754 12.0487C8.65754 11.9266 8.55855 11.8276 8.43643 11.8276C8.31432 11.8276 8.21533 11.9266 8.21533 12.0487C8.21533 12.1707 8.31432 12.2697 8.43643 12.2697Z" fill="white"/>
<path id="Vector_196" d="M9.07516 12.8802C9.20296 12.8802 9.30656 12.7766 9.30656 12.6489C9.30656 12.5211 9.20296 12.4175 9.07516 12.4175C8.94735 12.4175 8.84375 12.5211 8.84375 12.6489C8.84375 12.7766 8.94735 12.8802 9.07516 12.8802Z" fill="white"/>
<path id="Vector_197" d="M9.58005 13.3026C9.71406 13.3026 9.8227 13.194 9.8227 13.06C9.8227 12.926 9.71406 12.8174 9.58005 12.8174C9.44604 12.8174 9.3374 12.926 9.3374 13.06C9.3374 13.194 9.44604 13.3026 9.58005 13.3026Z" fill="white"/>
<path id="Vector_198" d="M10.0015 13.6949C10.1417 13.6949 10.2553 13.5813 10.2553 13.4411C10.2553 13.3009 10.1417 13.1873 10.0015 13.1873C9.86123 13.1873 9.74756 13.3009 9.74756 13.4411C9.74756 13.5813 9.86123 13.6949 10.0015 13.6949Z" fill="white"/>
<path id="Vector_199" d="M10.4661 14.0404C10.612 14.0404 10.7303 13.9222 10.7303 13.7763C10.7303 13.6305 10.612 13.5122 10.4661 13.5122C10.3202 13.5122 10.2019 13.6305 10.2019 13.7763C10.2019 13.9222 10.3202 14.0404 10.4661 14.0404Z" fill="white"/>
<path id="Vector_200" d="M11.1781 5.97989C11.2407 5.97989 11.2914 5.92915 11.2914 5.86656C11.2914 5.80397 11.2407 5.75323 11.1781 5.75323C11.1155 5.75323 11.0647 5.80397 11.0647 5.86656C11.0647 5.92915 11.1155 5.97989 11.1781 5.97989Z" fill="white"/>
<path id="Vector_201" d="M10.1598 5.99584C10.2286 5.99584 10.2844 5.94007 10.2844 5.87127C10.2844 5.80247 10.2286 5.7467 10.1598 5.7467C10.0909 5.7467 10.0352 5.80247 10.0352 5.87127C10.0352 5.94007 10.0909 5.99584 10.1598 5.99584Z" fill="white"/>
<path id="Vector_202" d="M9.03868 6.14847C9.1137 6.14847 9.17452 6.08767 9.17452 6.01267C9.17452 5.93766 9.1137 5.87686 9.03868 5.87686C8.96365 5.87686 8.90283 5.93766 8.90283 6.01267C8.90283 6.08767 8.96365 6.14847 9.03868 6.14847Z" fill="white"/>
<path id="Vector_203" d="M7.99914 6.48748C8.08037 6.48748 8.14623 6.42165 8.14623 6.34044C8.14623 6.25922 8.08037 6.19339 7.99914 6.19339C7.9179 6.19339 7.85205 6.25922 7.85205 6.34044C7.85205 6.42165 7.9179 6.48748 7.99914 6.48748Z" fill="white"/>
<path id="Vector_204" d="M7.12879 7.06239C7.21623 7.06239 7.28712 6.99152 7.28712 6.9041C7.28712 6.81669 7.21623 6.74582 7.12879 6.74582C7.04135 6.74582 6.97046 6.81669 6.97046 6.9041C6.97046 6.99152 7.04135 7.06239 7.12879 7.06239Z" fill="white"/>
<path id="Vector_205" d="M6.51259 7.8443C6.60624 7.8443 6.68217 7.7684 6.68217 7.67477C6.68217 7.58115 6.60624 7.50525 6.51259 7.50525C6.41894 7.50525 6.34302 7.58115 6.34302 7.67477C6.34302 7.7684 6.41894 7.8443 6.51259 7.8443Z" fill="white"/>
<path id="Vector_206" d="M6.13028 8.65334C6.23014 8.65334 6.3111 8.57241 6.3111 8.47257C6.3111 8.37274 6.23014 8.29181 6.13028 8.29181C6.03042 8.29181 5.94946 8.37274 5.94946 8.47257C5.94946 8.57241 6.03042 8.65334 6.13028 8.65334Z" fill="white"/>
<path id="Vector_207" d="M5.98987 9.49705C6.09646 9.49705 6.18287 9.41067 6.18287 9.30411C6.18287 9.19756 6.09646 9.11118 5.98987 9.11118C5.88328 9.11118 5.79688 9.19756 5.79688 9.30411C5.79688 9.41067 5.88328 9.49705 5.98987 9.49705Z" fill="white"/>
<path id="Vector_208" d="M6.10683 10.4044C6.21962 10.4044 6.31106 10.313 6.31106 10.2002C6.31106 10.0875 6.21962 9.99606 6.10683 9.99606C5.99403 9.99606 5.90259 10.0875 5.90259 10.2002C5.90259 10.313 5.99403 10.4044 6.10683 10.4044Z" fill="white"/>
<path id="Vector_209" d="M6.4374 11.3062C6.55641 11.3062 6.65289 11.2097 6.65289 11.0908C6.65289 10.9718 6.55641 10.8753 6.4374 10.8753C6.3184 10.8753 6.22192 10.9718 6.22192 11.0908C6.22192 11.2097 6.3184 11.3062 6.4374 11.3062Z" fill="white"/>
<path id="Vector_210" d="M6.92643 12.1742C7.05165 12.1742 7.15315 12.0728 7.15315 11.9476C7.15315 11.8224 7.05165 11.7209 6.92643 11.7209C6.80121 11.7209 6.69971 11.8224 6.69971 11.9476C6.69971 12.0728 6.80121 12.1742 6.92643 12.1742Z" fill="white"/>
<path id="Vector_211" d="M7.51653 12.9879C7.64795 12.9879 7.75449 12.8814 7.75449 12.75C7.75449 12.6187 7.64795 12.5121 7.51653 12.5121C7.38511 12.5121 7.27856 12.6187 7.27856 12.75C7.27856 12.8814 7.38511 12.9879 7.51653 12.9879Z" fill="white"/>
<path id="Vector_212" d="M8.1535 13.7315C8.29114 13.7315 8.40271 13.6199 8.40271 13.4823C8.40271 13.3447 8.29114 13.2332 8.1535 13.2332C8.01587 13.2332 7.9043 13.3447 7.9043 13.4823C7.9043 13.6199 8.01587 13.7315 8.1535 13.7315Z" fill="white"/>
<path id="Vector_213" d="M8.78096 14.385C8.9248 14.385 9.04141 14.2685 9.04141 14.1247C9.04141 13.9809 8.9248 13.8643 8.78096 13.8643C8.63712 13.8643 8.52051 13.9809 8.52051 14.1247C8.52051 14.2685 8.63712 14.385 8.78096 14.385Z" fill="white"/>
<path id="Vector_214" d="M9.30465 14.8841C9.4547 14.8841 9.57634 14.7625 9.57634 14.6125C9.57634 14.4625 9.4547 14.3409 9.30465 14.3409C9.1546 14.3409 9.03296 14.4625 9.03296 14.6125C9.03296 14.7625 9.1546 14.8841 9.30465 14.8841Z" fill="white"/>
<path id="Vector_215" d="M9.78513 15.3514C9.94139 15.3514 10.0681 15.2248 10.0681 15.0686C10.0681 14.9123 9.94139 14.7857 9.78513 14.7857C9.62887 14.7857 9.5022 14.9123 9.5022 15.0686C9.5022 15.2248 9.62887 15.3514 9.78513 15.3514Z" fill="white"/>
<path id="Vector_216" d="M10.7451 5.77112C10.8212 5.77112 10.8829 5.70948 10.8829 5.63344C10.8829 5.5574 10.8212 5.49576 10.7451 5.49576C10.6691 5.49576 10.6074 5.5574 10.6074 5.63344C10.6074 5.70948 10.6691 5.77112 10.7451 5.77112Z" fill="white"/>
<path id="Vector_217" d="M9.66984 5.81423C9.75366 5.81423 9.82161 5.7463 9.82161 5.6625C9.82161 5.5787 9.75366 5.51077 9.66984 5.51077C9.58602 5.51077 9.51807 5.5787 9.51807 5.6625C9.51807 5.7463 9.58602 5.81423 9.66984 5.81423Z" fill="white"/>
<path id="Vector_218" d="M8.40163 6.023C8.49373 6.023 8.56839 5.94836 8.56839 5.85629C8.56839 5.76422 8.49373 5.68958 8.40163 5.68958C8.30953 5.68958 8.23486 5.76422 8.23486 5.85629C8.23486 5.94836 8.30953 6.023 8.40163 6.023Z" fill="white"/>
<path id="Vector_219" d="M7.24771 6.43877C7.34757 6.43877 7.42853 6.35784 7.42853 6.258C7.42853 6.15817 7.34757 6.07724 7.24771 6.07724C7.14785 6.07724 7.06689 6.15817 7.06689 6.258C7.06689 6.35784 7.14785 6.43877 7.24771 6.43877Z" fill="white"/>
<path id="Vector_220" d="M6.30836 7.13826C6.4165 7.13826 6.50416 7.05062 6.50416 6.94251C6.50416 6.8344 6.4165 6.74677 6.30836 6.74677C6.20021 6.74677 6.11255 6.8344 6.11255 6.94251C6.11255 7.05062 6.20021 7.13826 6.30836 7.13826Z" fill="white"/>
<path id="Vector_221" d="M5.64882 7.97639C5.76473 7.97639 5.85868 7.88246 5.85868 7.76659C5.85868 7.65072 5.76473 7.55679 5.64882 7.55679C5.53292 7.55679 5.43896 7.65072 5.43896 7.76659C5.43896 7.88246 5.53292 7.97639 5.64882 7.97639Z" fill="white"/>
<path id="Vector_222" d="M5.23291 8.86689C5.35709 8.86689 5.45776 8.76626 5.45776 8.64211C5.45776 8.51797 5.35709 8.41733 5.23291 8.41733C5.10872 8.41733 5.00806 8.51797 5.00806 8.64211C5.00806 8.76626 5.10872 8.86689 5.23291 8.86689Z" fill="white"/>
<path id="Vector_223" d="M5.08505 9.82857C5.21751 9.82857 5.32489 9.72122 5.32489 9.5888C5.32489 9.45638 5.21751 9.34903 5.08505 9.34903C4.95259 9.34903 4.84521 9.45638 4.84521 9.5888C4.84521 9.72122 4.95259 9.82857 5.08505 9.82857Z" fill="white"/>
<path id="Vector_224" d="M5.19188 10.8183C5.3321 10.8183 5.44577 10.7047 5.44577 10.5645C5.44577 10.4243 5.3321 10.3107 5.19188 10.3107C5.05166 10.3107 4.93799 10.4243 4.93799 10.5645C4.93799 10.7047 5.05166 10.8183 5.19188 10.8183Z" fill="white"/>
<path id="Vector_225" d="M5.49911 11.8109C5.64761 11.8109 5.76799 11.6905 5.76799 11.5421C5.76799 11.3936 5.64761 11.2733 5.49911 11.2733C5.35061 11.2733 5.23022 11.3936 5.23022 11.5421C5.23022 11.6905 5.35061 11.8109 5.49911 11.8109Z" fill="white"/>
<path id="Vector_226" d="M5.96165 12.7848C6.11791 12.7848 6.24458 12.6581 6.24458 12.5019C6.24458 12.3457 6.11791 12.2191 5.96165 12.2191C5.80539 12.2191 5.67871 12.3457 5.67871 12.5019C5.67871 12.6581 5.80539 12.7848 5.96165 12.7848Z" fill="white"/>
<path id="Vector_227" d="M6.53474 13.7212C6.69928 13.7212 6.83267 13.5878 6.83267 13.4233C6.83267 13.2588 6.69928 13.1255 6.53474 13.1255C6.3702 13.1255 6.23682 13.2588 6.23682 13.4233C6.23682 13.5878 6.3702 13.7212 6.53474 13.7212Z" fill="white"/>
<path id="Vector_228" d="M7.17473 14.5976C7.34755 14.5976 7.48765 14.4576 7.48765 14.2848C7.48765 14.112 7.34755 13.972 7.17473 13.972C7.00191 13.972 6.86182 14.112 6.86182 14.2848C6.86182 14.4576 7.00191 14.5976 7.17473 14.5976Z" fill="white"/>
<path id="Vector_229" d="M7.83673 15.3926C8.01731 15.3926 8.1637 15.2463 8.1637 15.0658C8.1637 14.8852 8.01731 14.7389 7.83673 14.7389C7.65615 14.7389 7.50977 14.8852 7.50977 15.0658C7.50977 15.2463 7.65615 15.3926 7.83673 15.3926Z" fill="white"/>
<path id="Vector_230" d="M8.47672 16.0884C8.66558 16.0884 8.81868 15.9353 8.81868 15.7465C8.81868 15.5577 8.66558 15.4047 8.47672 15.4047C8.28787 15.4047 8.13477 15.5577 8.13477 15.7465C8.13477 15.9353 8.28787 16.0884 8.47672 16.0884Z" fill="white"/>
<path id="Vector_231" d="M9.04884 16.6633C9.24598 16.6633 9.40579 16.5036 9.40579 16.3065C9.40579 16.1094 9.24598 15.9496 9.04884 15.9496C8.85171 15.9496 8.69189 16.1094 8.69189 16.3065C8.69189 16.5036 8.85171 16.6633 9.04884 16.6633Z" fill="white"/>
<path id="Vector_232" d="M10.2946 5.53327C10.3789 5.53327 10.4473 5.46492 10.4473 5.3806C10.4473 5.29629 10.3789 5.22794 10.2946 5.22794C10.2102 5.22794 10.1418 5.29629 10.1418 5.3806C10.1418 5.46492 10.2102 5.53327 10.2946 5.53327Z" fill="white"/>
<path id="Vector_233" d="M9.13055 5.62413C9.22369 5.62413 9.29919 5.54865 9.29919 5.45554C9.29919 5.36244 9.22369 5.28696 9.13055 5.28696C9.03741 5.28696 8.96191 5.36244 8.96191 5.45554C8.96191 5.54865 9.03741 5.62413 9.13055 5.62413Z" fill="white"/>
<path id="Vector_234" d="M7.72167 5.88068C7.82361 5.88068 7.90624 5.79807 7.90624 5.69617C7.90624 5.59427 7.82361 5.51166 7.72167 5.51166C7.61974 5.51166 7.53711 5.59427 7.53711 5.69617C7.53711 5.79807 7.61974 5.88068 7.72167 5.88068Z" fill="white"/>
<path id="Vector_235" d="M6.4544 6.38539C6.56512 6.38539 6.65489 6.29565 6.65489 6.18496C6.65489 6.07426 6.56512 5.98453 6.4544 5.98453C6.34367 5.98453 6.25391 6.07426 6.25391 6.18496C6.25391 6.29565 6.34367 6.38539 6.4544 6.38539Z" fill="white"/>
<path id="Vector_236" d="M5.45763 7.18979C5.57715 7.18979 5.67405 7.09292 5.67405 6.97343C5.67405 6.85394 5.57715 6.75708 5.45763 6.75708C5.3381 6.75708 5.24121 6.85394 5.24121 6.97343C5.24121 7.09292 5.3381 7.18979 5.45763 7.18979Z" fill="white"/>
<path id="Vector_237" d="M4.74895 8.0962C4.87727 8.0962 4.98129 7.99221 4.98129 7.86393C4.98129 7.73565 4.87727 7.63165 4.74895 7.63165C4.62063 7.63165 4.5166 7.73565 4.5166 7.86393C4.5166 7.99221 4.62063 8.0962 4.74895 8.0962Z" fill="white"/>
<path id="Vector_238" d="M4.31028 9.08883C4.4474 9.08883 4.55855 8.97771 4.55855 8.84064C4.55855 8.70356 4.4474 8.59244 4.31028 8.59244C4.17317 8.59244 4.06201 8.70356 4.06201 8.84064C4.06201 8.97771 4.17317 9.08883 4.31028 9.08883Z" fill="white"/>
<path id="Vector_239" d="M4.16141 10.16C4.30733 10.16 4.42561 10.0418 4.42561 9.8959C4.42561 9.75003 4.30733 9.63177 4.16141 9.63177C4.0155 9.63177 3.89722 9.75003 3.89722 9.8959C3.89722 10.0418 4.0155 10.16 4.16141 10.16Z" fill="white"/>
<path id="Vector_240" d="M4.25888 11.2303C4.41359 11.2303 4.53901 11.105 4.53901 10.9503C4.53901 10.7956 4.41359 10.6703 4.25888 10.6703C4.10418 10.6703 3.97876 10.7956 3.97876 10.9503C3.97876 11.105 4.10418 11.2303 4.25888 11.2303Z" fill="white"/>
<path id="Vector_241" d="M4.54923 12.3213C4.71273 12.3213 4.84528 12.1888 4.84528 12.0253C4.84528 11.8618 4.71273 11.7293 4.54923 11.7293C4.38572 11.7293 4.25317 11.8618 4.25317 12.0253C4.25317 12.1888 4.38572 12.3213 4.54923 12.3213Z" fill="white"/>
<path id="Vector_242" d="M4.99801 13.4084C5.17031 13.4084 5.30999 13.2688 5.30999 13.0965C5.30999 12.9243 5.17031 12.7846 4.99801 12.7846C4.82571 12.7846 4.68604 12.9243 4.68604 13.0965C4.68604 13.2688 4.82571 13.4084 4.99801 13.4084Z" fill="white"/>
<path id="Vector_243" d="M5.56838 14.4684C5.74948 14.4684 5.89629 14.3216 5.89629 14.1406C5.89629 13.9595 5.74948 13.8128 5.56838 13.8128C5.38729 13.8128 5.24048 13.9595 5.24048 14.1406C5.24048 14.3216 5.38729 14.4684 5.56838 14.4684Z" fill="white"/>
<path id="Vector_244" d="M6.22494 15.4788C6.41483 15.4788 6.56877 15.3249 6.56877 15.1351C6.56877 14.9452 6.41483 14.7913 6.22494 14.7913C6.03504 14.7913 5.8811 14.9452 5.8811 15.1351C5.8811 15.3249 6.03504 15.4788 6.22494 15.4788Z" fill="white"/>
<path id="Vector_245" d="M6.93105 16.4152C7.12974 16.4152 7.29081 16.2542 7.29081 16.0555C7.29081 15.8569 7.12974 15.6959 6.93105 15.6959C6.73236 15.6959 6.57129 15.8569 6.57129 16.0555C6.57129 16.2542 6.73236 16.4152 6.93105 16.4152Z" fill="white"/>
<path id="Vector_246" d="M7.65254 17.2551C7.86003 17.2551 8.02823 17.087 8.02823 16.8796C8.02823 16.6721 7.86003 16.504 7.65254 16.504C7.44506 16.504 7.27686 16.6721 7.27686 16.8796C7.27686 17.087 7.44506 17.2551 7.65254 17.2551Z" fill="white"/>
<path id="Vector_247" d="M8.3521 17.9743C8.56787 17.9743 8.74278 17.7994 8.74278 17.5837C8.74278 17.368 8.56787 17.1932 8.3521 17.1932C8.13634 17.1932 7.96143 17.368 7.96143 17.5837C7.96143 17.7994 8.13634 17.9743 8.3521 17.9743Z" fill="white"/>
<path id="Vector_248" d="M9.81805 5.29265C9.91119 5.29265 9.98669 5.21717 9.98669 5.12406C9.98669 5.03095 9.91119 4.95547 9.81805 4.95547C9.72492 4.95547 9.64941 5.03095 9.64941 5.12406C9.64941 5.21717 9.72492 5.29265 9.81805 5.29265Z" fill="white"/>
<path id="Vector_249" d="M8.59566 5.42372C8.69811 5.42372 8.78116 5.34069 8.78116 5.23827C8.78116 5.13585 8.69811 5.05283 8.59566 5.05283C8.49321 5.05283 8.41016 5.13585 8.41016 5.23827C8.41016 5.34069 8.49321 5.42372 8.59566 5.42372Z" fill="white"/>
<path id="Vector_250" d="M7.02752 5.73272C7.1398 5.73272 7.23082 5.64172 7.23082 5.52947C7.23082 5.41723 7.1398 5.32623 7.02752 5.32623C6.91524 5.32623 6.82422 5.41723 6.82422 5.52947C6.82422 5.64172 6.91524 5.73272 7.02752 5.73272Z" fill="white"/>
<path id="Vector_251" d="M5.64692 6.3311C5.76852 6.3311 5.86709 6.23256 5.86709 6.111C5.86709 5.98944 5.76852 5.8909 5.64692 5.8909C5.52533 5.8909 5.42676 5.98944 5.42676 6.111C5.42676 6.23256 5.52533 6.3311 5.64692 6.3311Z" fill="white"/>
<path id="Vector_252" d="M4.5925 7.21598C4.7234 7.21598 4.82953 7.10989 4.82953 6.97902C4.82953 6.84816 4.7234 6.74207 4.5925 6.74207C4.46159 6.74207 4.35547 6.84816 4.35547 6.97902C4.35547 7.10989 4.46159 7.21598 4.5925 7.21598Z" fill="white"/>
<path id="Vector_253" d="M3.83837 8.20579C3.97859 8.20579 4.09226 8.09215 4.09226 7.95197C4.09226 7.81179 3.97859 7.69815 3.83837 7.69815C3.69814 7.69815 3.58447 7.81179 3.58447 7.95197C3.58447 8.09215 3.69814 8.20579 3.83837 8.20579Z" fill="white"/>
<path id="Vector_254" d="M3.37838 9.3173C3.52843 9.3173 3.65008 9.1957 3.65008 9.04569C3.65008 8.89568 3.52843 8.77408 3.37838 8.77408C3.22833 8.77408 3.10669 8.89568 3.10669 9.04569C3.10669 9.1957 3.22833 9.3173 3.37838 9.3173Z" fill="white"/>
<path id="Vector_255" d="M3.22362 10.4775C3.38298 10.4775 3.51217 10.3483 3.51217 10.189C3.51217 10.0297 3.38298 9.90054 3.22362 9.90054C3.06425 9.90054 2.93506 10.0297 2.93506 10.189C2.93506 10.3483 3.06425 10.4775 3.22362 10.4775Z" fill="white"/>
<path id="Vector_256" d="M3.30542 11.6377C3.4741 11.6377 3.61084 11.501 3.61084 11.3324C3.61084 11.1637 3.4741 11.027 3.30542 11.027C3.13674 11.027 3 11.1637 3 11.3324C3 11.501 3.13674 11.6377 3.30542 11.6377Z" fill="white"/>
<path id="Vector_257" d="M3.57985 12.8325C3.75784 12.8325 3.90214 12.6883 3.90214 12.5103C3.90214 12.3324 3.75784 12.1881 3.57985 12.1881C3.40186 12.1881 3.25757 12.3324 3.25757 12.5103C3.25757 12.6883 3.40186 12.8325 3.57985 12.8325Z" fill="white"/>
<path id="Vector_258" d="M4.01806 14.0367C4.20589 14.0367 4.35815 13.8845 4.35815 13.6968C4.35815 13.509 4.20589 13.3568 4.01806 13.3568C3.83024 13.3568 3.67798 13.509 3.67798 13.6968C3.67798 13.8845 3.83024 14.0367 4.01806 14.0367Z" fill="white"/>
<path id="Vector_259" d="M4.59035 15.2241C4.78748 15.2241 4.94729 15.0643 4.94729 14.8672C4.94729 14.6702 4.78748 14.5104 4.59035 14.5104C4.39321 14.5104 4.2334 14.6702 4.2334 14.8672C4.2334 15.0643 4.39321 15.2241 4.59035 15.2241Z" fill="white"/>
<path id="Vector_260" d="M5.26956 16.3674C5.47601 16.3674 5.64338 16.2001 5.64338 15.9937C5.64338 15.7873 5.47601 15.62 5.26956 15.62C5.06311 15.62 4.89575 15.7873 4.89575 15.9937C4.89575 16.2001 5.06311 16.3674 5.26956 16.3674Z" fill="white"/>
<path id="Vector_261" d="M6.0254 17.4443C6.24168 17.4443 6.41701 17.269 6.41701 17.0528C6.41701 16.8366 6.24168 16.6613 6.0254 16.6613C5.80912 16.6613 5.63379 16.8366 5.63379 17.0528C5.63379 17.269 5.80912 17.4443 6.0254 17.4443Z" fill="white"/>
<path id="Vector_262" d="M6.83084 18.4247C7.05643 18.4247 7.23932 18.2419 7.23932 18.0164C7.23932 17.7908 7.05643 17.608 6.83084 17.608C6.60524 17.608 6.42236 17.7908 6.42236 18.0164C6.42236 18.2419 6.60524 18.4247 6.83084 18.4247Z" fill="white"/>
<path id="Vector_263" d="M7.6563 19.2862C7.89121 19.2862 8.08164 19.0958 8.08164 18.861C8.08164 18.6261 7.89121 18.4358 7.6563 18.4358C7.42139 18.4358 7.23096 18.6261 7.23096 18.861C7.23096 19.0958 7.42139 19.2862 7.6563 19.2862Z" fill="white"/>
<path id="Vector_264" d="M9.34692 5.05948C9.44885 5.05948 9.53148 4.97687 9.53148 4.87497C9.53148 4.77307 9.44885 4.69046 9.34692 4.69046C9.24498 4.69046 9.16235 4.77307 9.16235 4.87497C9.16235 4.97687 9.24498 5.05948 9.34692 5.05948Z" fill="white"/>
<path id="Vector_265" d="M8.04196 5.21119C8.15373 5.21119 8.24433 5.12061 8.24433 5.00888C8.24433 4.89715 8.15373 4.80658 8.04196 4.80658C7.9302 4.80658 7.8396 4.89715 7.8396 5.00888C7.8396 5.12061 7.9302 5.21119 8.04196 5.21119Z" fill="white"/>
<path id="Vector_266" d="M6.32511 5.57824C6.44722 5.57824 6.54621 5.47928 6.54621 5.35721C6.54621 5.23513 6.44722 5.13617 6.32511 5.13617C6.20299 5.13617 6.104 5.23513 6.104 5.35721C6.104 5.47928 6.20299 5.57824 6.32511 5.57824Z" fill="white"/>
<path id="Vector_267" d="M4.83212 6.27684C4.96458 6.27684 5.07196 6.16949 5.07196 6.03707C5.07196 5.90465 4.96458 5.7973 4.83212 5.7973C4.69966 5.7973 4.59229 5.90465 4.59229 6.03707C4.59229 6.16949 4.69966 6.27684 4.83212 6.27684Z" fill="white"/>
<path id="Vector_268" d="M3.72102 7.22726C3.86331 7.22726 3.97866 7.11194 3.97866 6.96969C3.97866 6.82744 3.86331 6.71213 3.72102 6.71213C3.57873 6.71213 3.46338 6.82744 3.46338 6.96969C3.46338 7.11194 3.57873 7.22726 3.72102 7.22726Z" fill="white"/>
<path id="Vector_269" d="M2.92408 8.3144C3.07672 8.3144 3.20046 8.1907 3.20046 8.03811C3.20046 7.88551 3.07672 7.76181 2.92408 7.76181C2.77144 7.76181 2.64771 7.88551 2.64771 8.03811C2.64771 8.1907 2.77144 8.3144 2.92408 8.3144Z" fill="white"/>
<path id="Vector_270" d="M2.44066 9.54955C2.60313 9.54955 2.73484 9.41788 2.73484 9.25546C2.73484 9.09303 2.60313 8.96136 2.44066 8.96136C2.27819 8.96136 2.14648 9.09303 2.14648 9.25546C2.14648 9.41788 2.27819 9.54955 2.44066 9.54955Z" fill="white"/>
<path id="Vector_271" d="M2.27385 10.7865C2.44667 10.7865 2.58677 10.6464 2.58677 10.4737C2.58677 10.3009 2.44667 10.1609 2.27385 10.1609C2.10103 10.1609 1.96094 10.3009 1.96094 10.4737C1.96094 10.6464 2.10103 10.7865 2.27385 10.7865Z" fill="white"/>
<path id="Vector_272" d="M2.33873 12.0422C2.5219 12.0422 2.67039 11.8938 2.67039 11.7106C2.67039 11.5275 2.5219 11.3791 2.33873 11.3791C2.15557 11.3791 2.00708 11.5275 2.00708 11.7106C2.00708 11.8938 2.15557 12.0422 2.33873 12.0422Z" fill="white"/>
<path id="Vector_273" d="M2.59628 13.3457C2.78928 13.3457 2.94573 13.1893 2.94573 12.9964C2.94573 12.8034 2.78928 12.647 2.59628 12.647C2.40328 12.647 2.24683 12.8034 2.24683 12.9964C2.24683 13.1893 2.40328 13.3457 2.59628 13.3457Z" fill="white"/>
<path id="Vector_274" d="M3.02713 14.6698C3.23047 14.6698 3.39532 14.505 3.39532 14.3017C3.39532 14.0984 3.23047 13.9336 3.02713 13.9336C2.82378 13.9336 2.65894 14.0984 2.65894 14.3017C2.65894 14.505 2.82378 14.6698 3.02713 14.6698Z" fill="white"/>
<path id="Vector_275" d="M3.60592 15.9854C3.81962 15.9854 3.99285 15.8122 3.99285 15.5986C3.99285 15.3849 3.81962 15.2118 3.60592 15.2118C3.39223 15.2118 3.21899 15.3849 3.21899 15.5986C3.21899 15.8122 3.39223 15.9854 3.60592 15.9854Z" fill="white"/>
<path id="Vector_276" d="M4.31147 17.2636C4.53499 17.2636 4.7162 17.0824 4.7162 16.859C4.7162 16.6355 4.53499 16.4544 4.31147 16.4544C4.08794 16.4544 3.90674 16.6355 3.90674 16.859C3.90674 17.0824 4.08794 17.2636 4.31147 17.2636Z" fill="white"/>
<path id="Vector_277" d="M5.11976 18.4772C5.35363 18.4772 5.54322 18.2876 5.54322 18.0538C5.54322 17.82 5.35363 17.6305 5.11976 17.6305C4.88588 17.6305 4.69629 17.82 4.69629 18.0538C4.69629 18.2876 4.88588 18.4772 5.11976 18.4772Z" fill="white"/>
<path id="Vector_278" d="M6.01056 19.599C6.25479 19.599 6.45277 19.401 6.45277 19.1569C6.45277 18.9127 6.25479 18.7148 6.01056 18.7148C5.76634 18.7148 5.56836 18.9127 5.56836 19.1569C5.56836 19.401 5.76634 19.599 6.01056 19.599Z" fill="white"/>
<path id="Vector_279" d="M6.95927 20.5972C7.21332 20.5972 7.41928 20.3913 7.41928 20.1373C7.41928 19.8833 7.21332 19.6774 6.95927 19.6774C6.70522 19.6774 6.49927 19.8833 6.49927 20.1373C6.49927 20.3913 6.70522 20.5972 6.95927 20.5972Z" fill="white"/>
<path id="Vector_280" d="M8.81768 4.80476C8.92841 4.80476 9.01817 4.71503 9.01817 4.60433C9.01817 4.49364 8.92841 4.4039 8.81768 4.4039C8.70695 4.4039 8.61719 4.49364 8.61719 4.60433C8.61719 4.71503 8.70695 4.80476 8.81768 4.80476Z" fill="white"/>
<path id="Vector_281" d="M7.48018 5.02486C7.60177 5.02486 7.70034 4.92631 7.70034 4.80476C7.70034 4.6832 7.60177 4.58466 7.48018 4.58466C7.35858 4.58466 7.26001 4.6832 7.26001 4.80476C7.26001 4.92631 7.35858 5.02486 7.48018 5.02486Z" fill="white"/>
<path id="Vector_282" d="M5.61708 5.42002C5.74902 5.42002 5.85598 5.31309 5.85598 5.18118C5.85598 5.04928 5.74902 4.94235 5.61708 4.94235C5.48513 4.94235 5.37817 5.04928 5.37817 5.18118C5.37817 5.31309 5.48513 5.42002 5.61708 5.42002Z" fill="white"/>
<path id="Vector_283" d="M4.02078 6.20941C4.16359 6.20941 4.27936 6.09368 4.27936 5.95091C4.27936 5.80815 4.16359 5.69241 4.02078 5.69241C3.87798 5.69241 3.76221 5.80815 3.76221 5.95091C3.76221 6.09368 3.87798 6.20941 4.02078 6.20941Z" fill="white"/>
<path id="Vector_284" d="M2.84734 7.23007C3.00102 7.23007 3.12559 7.10553 3.12559 6.95191C3.12559 6.79828 3.00102 6.67374 2.84734 6.67374C2.69367 6.67374 2.56909 6.79828 2.56909 6.95191C2.56909 7.10553 2.69367 7.23007 2.84734 7.23007Z" fill="white"/>
<path id="Vector_285" d="M2.00789 8.42209C2.17243 8.42209 2.30581 8.28875 2.30581 8.12425C2.30581 7.95976 2.17243 7.82642 2.00789 7.82642C1.84335 7.82642 1.70996 7.95976 1.70996 8.12425C1.70996 8.28875 1.84335 8.42209 2.00789 8.42209Z" fill="white"/>
<path id="Vector_286" d="M1.4968 9.78739C1.6722 9.78739 1.8144 9.64524 1.8144 9.46988C1.8144 9.29453 1.6722 9.15237 1.4968 9.15237C1.32139 9.15237 1.1792 9.29453 1.1792 9.46988C1.1792 9.64524 1.32139 9.78739 1.4968 9.78739Z" fill="white"/>
<path id="Vector_287" d="M1.31579 11.089C1.50206 11.089 1.65306 10.938 1.65306 10.7518C1.65306 10.5656 1.50206 10.4146 1.31579 10.4146C1.12952 10.4146 0.978516 10.5656 0.978516 10.7518C0.978516 10.938 1.12952 11.089 1.31579 11.089Z" fill="white"/>
<path id="Vector_288" d="M1.35988 12.4458C1.55701 12.4458 1.71683 12.286 1.71683 12.089C1.71683 11.8919 1.55701 11.7321 1.35988 11.7321C1.16274 11.7321 1.00293 11.8919 1.00293 12.089C1.00293 12.286 1.16274 12.4458 1.35988 12.4458Z" fill="white"/>
<path id="Vector_289" d="M1.60245 13.8617C1.81046 13.8617 1.97907 13.6931 1.97907 13.4852C1.97907 13.2772 1.81046 13.1086 1.60245 13.1086C1.39445 13.1086 1.22583 13.2772 1.22583 13.4852C1.22583 13.6931 1.39445 13.8617 1.60245 13.8617Z" fill="white"/>
<path id="Vector_290" d="M2.02691 15.3065C2.24578 15.3065 2.42321 15.1291 2.42321 14.9103C2.42321 14.6915 2.24578 14.5142 2.02691 14.5142C1.80804 14.5142 1.63062 14.6915 1.63062 14.9103C1.63062 15.1291 1.80804 15.3065 2.02691 15.3065Z" fill="white"/>
<path id="Vector_291" d="M2.61519 16.7504C2.84492 16.7504 3.03116 16.5642 3.03116 16.3346C3.03116 16.1049 2.84492 15.9187 2.61519 15.9187C2.38546 15.9187 2.19922 16.1049 2.19922 16.3346C2.19922 16.5642 2.38546 16.7504 2.61519 16.7504Z" fill="white"/>
<path id="Vector_292" d="M3.3502 18.1635C3.5908 18.1635 3.78584 17.9685 3.78584 17.7279C3.78584 17.4874 3.5908 17.2924 3.3502 17.2924C3.1096 17.2924 2.91455 17.4874 2.91455 17.7279C2.91455 17.9685 3.1096 18.1635 3.3502 18.1635Z" fill="white"/>
<path id="Vector_293" d="M4.21386 19.5137C4.46533 19.5137 4.66918 19.3099 4.66918 19.0585C4.66918 18.8072 4.46533 18.6034 4.21386 18.6034C3.9624 18.6034 3.75854 18.8072 3.75854 19.0585C3.75854 19.3099 3.9624 19.5137 4.21386 19.5137Z" fill="white"/>
<path id="Vector_294" d="M5.19081 20.7732C5.45315 20.7732 5.66581 20.5606 5.66581 20.2984C5.66581 20.0361 5.45315 19.8235 5.19081 19.8235C4.92848 19.8235 4.71582 20.0361 4.71582 20.2984C4.71582 20.5606 4.92848 20.7732 5.19081 20.7732Z" fill="white"/>
<path id="Vector_295" d="M6.26249 21.9091C6.53569 21.9091 6.75716 21.6877 6.75716 21.4145C6.75716 21.1414 6.53569 20.92 6.26249 20.92C5.98929 20.92 5.76782 21.1414 5.76782 21.4145C5.76782 21.6877 5.98929 21.9091 6.26249 21.9091Z" fill="white"/>
<path id="Vector_296" d="M13.8175 6.52768C13.8393 6.52768 13.857 6.51007 13.857 6.48834C13.857 6.46662 13.8393 6.44901 13.8175 6.44901C13.7957 6.44901 13.7781 6.46662 13.7781 6.48834C13.7781 6.51007 13.7957 6.52768 13.8175 6.52768Z" fill="white"/>
<path id="Vector_297" d="M13.8756 6.42749C13.9015 6.42749 13.9225 6.40653 13.9225 6.38066C13.9225 6.3548 13.9015 6.33383 13.8756 6.33383C13.8496 6.33383 13.8286 6.3548 13.8286 6.38066C13.8286 6.40653 13.8496 6.42749 13.8756 6.42749Z" fill="white"/>
<path id="Vector_298" d="M13.2209 6.43685C13.2588 6.43685 13.2895 6.40624 13.2895 6.36848C13.2895 6.33072 13.2588 6.30011 13.2209 6.30011C13.183 6.30011 13.1523 6.33072 13.1523 6.36848C13.1523 6.40624 13.183 6.43685 13.2209 6.43685Z" fill="white"/>
<path id="Vector_299" d="M12.7041 6.37321C12.7482 6.37321 12.7839 6.33757 12.7839 6.2936C12.7839 6.24963 12.7482 6.21399 12.7041 6.21399C12.66 6.21399 12.6243 6.24963 12.6243 6.2936C12.6243 6.33757 12.66 6.37321 12.7041 6.37321Z" fill="white"/>
<path id="Vector_300" d="M13.9347 6.32543C13.9669 6.32543 13.9929 6.29943 13.9929 6.26736C13.9929 6.23529 13.9669 6.20929 13.9347 6.20929C13.9025 6.20929 13.8765 6.23529 13.8765 6.26736C13.8765 6.29943 13.9025 6.32543 13.9347 6.32543Z" fill="white"/>
<path id="Vector_301" d="M13.0122 6.23927C13.0563 6.23927 13.092 6.20363 13.092 6.15966C13.092 6.11569 13.0563 6.08005 13.0122 6.08005C12.9681 6.08005 12.9324 6.11569 12.9324 6.15966C12.9324 6.20363 12.9681 6.23927 13.0122 6.23927Z" fill="white"/>
<path id="Vector_302" d="M12.3922 6.15688C12.442 6.15688 12.4823 6.11662 12.4823 6.06696C12.4823 6.01731 12.442 5.97705 12.3922 5.97705C12.3424 5.97705 12.302 6.01731 12.302 6.06696C12.302 6.11662 12.3424 6.15688 12.3922 6.15688Z" fill="white"/>
<path id="Vector_303" d="M14.007 6.20931C14.0449 6.20931 14.0756 6.1787 14.0756 6.14094C14.0756 6.10318 14.0449 6.07257 14.007 6.07257C13.9692 6.07257 13.9385 6.10318 13.9385 6.14094C13.9385 6.1787 13.9692 6.20931 14.007 6.20931Z" fill="white"/>
<path id="Vector_304" d="M12.8035 6.04172C12.8538 6.04172 12.8946 6.00104 12.8946 5.95087C12.8946 5.90069 12.8538 5.86002 12.8035 5.86002C12.7532 5.86002 12.7124 5.90069 12.7124 5.95087C12.7124 6.00104 12.7532 6.04172 12.8035 6.04172Z" fill="white"/>
<path id="Vector_305" d="M12.0792 5.94246C12.1356 5.94246 12.1813 5.89675 12.1813 5.84037C12.1813 5.78399 12.1356 5.73828 12.0792 5.73828C12.0228 5.73828 11.9771 5.78399 11.9771 5.84037C11.9771 5.89675 12.0228 5.94246 12.0792 5.94246Z" fill="white"/>
<path id="Vector_306" d="M14.0886 6.07542C14.1327 6.07542 14.1685 6.03978 14.1685 5.99581C14.1685 5.95184 14.1327 5.9162 14.0886 5.9162C14.0445 5.9162 14.0088 5.95184 14.0088 5.99581C14.0088 6.03978 14.0445 6.07542 14.0886 6.07542Z" fill="white"/>
<path id="Vector_307" d="M12.594 5.85068C12.654 5.85068 12.7027 5.80204 12.7027 5.74204C12.7027 5.68203 12.654 5.63339 12.594 5.63339C12.534 5.63339 12.4854 5.68203 12.4854 5.74204C12.4854 5.80204 12.534 5.85068 12.594 5.85068Z" fill="white"/>
<path id="Vector_308" d="M11.7673 5.73642C11.835 5.73642 11.89 5.68148 11.89 5.61372C11.89 5.54596 11.835 5.49103 11.7673 5.49103C11.6995 5.49103 11.6445 5.54596 11.6445 5.61372C11.6445 5.68148 11.6995 5.73642 11.7673 5.73642Z" fill="white"/>
<path id="Vector_309" d="M14.1727 5.92464C14.2225 5.92464 14.2628 5.88438 14.2628 5.83473C14.2628 5.78507 14.2225 5.74481 14.1727 5.74481C14.1229 5.74481 14.0825 5.78507 14.0825 5.83473C14.0825 5.88438 14.1229 5.92464 14.1727 5.92464Z" fill="white"/>
<path id="Vector_310" d="M12.3977 5.66158C12.4649 5.66158 12.5195 5.60706 12.5195 5.53982C12.5195 5.47257 12.4649 5.41806 12.3977 5.41806C12.3304 5.41806 12.2759 5.47257 12.2759 5.53982C12.2759 5.60706 12.3304 5.66158 12.3977 5.66158Z" fill="white"/>
<path id="Vector_311" d="M11.4553 5.52579C11.5314 5.52579 11.5931 5.46415 11.5931 5.38811C11.5931 5.31207 11.5314 5.25043 11.4553 5.25043C11.3793 5.25043 11.3176 5.31207 11.3176 5.38811C11.3176 5.46415 11.3793 5.52579 11.4553 5.52579Z" fill="white"/>
<path id="Vector_312" d="M14.2699 5.76831C14.3258 5.76831 14.3711 5.72303 14.3711 5.66716C14.3711 5.6113 14.3258 5.56601 14.2699 5.56601C14.214 5.56601 14.1687 5.6113 14.1687 5.66716C14.1687 5.72303 14.214 5.76831 14.2699 5.76831Z" fill="white"/>
<path id="Vector_313" d="M12.1896 5.4696C12.2641 5.4696 12.3245 5.40922 12.3245 5.33473C12.3245 5.26024 12.2641 5.19986 12.1896 5.19986C12.1151 5.19986 12.0547 5.26024 12.0547 5.33473C12.0547 5.40922 12.1151 5.4696 12.1896 5.4696Z" fill="white"/>
<path id="Vector_314" d="M11.1432 5.31325C11.227 5.31325 11.295 5.24532 11.295 5.16153C11.295 5.07773 11.227 5.0098 11.1432 5.0098C11.0594 5.0098 10.9915 5.07773 10.9915 5.16153C10.9915 5.24532 11.0594 5.31325 11.1432 5.31325Z" fill="white"/>
<path id="Vector_315" d="M14.3634 5.60163C14.425 5.60163 14.4749 5.55173 14.4749 5.49018C14.4749 5.42862 14.425 5.37872 14.3634 5.37872C14.3019 5.37872 14.252 5.42862 14.252 5.49018C14.252 5.55173 14.3019 5.60163 14.3634 5.60163Z" fill="white"/>
<path id="Vector_316" d="M11.9835 5.2739C12.0652 5.2739 12.1315 5.20765 12.1315 5.12592C12.1315 5.04419 12.0652 4.97794 11.9835 4.97794C11.9017 4.97794 11.8354 5.04419 11.8354 5.12592C11.8354 5.20765 11.9017 5.2739 11.9835 5.2739Z" fill="white"/>
<path id="Vector_317" d="M10.8314 5.10069C10.9229 5.10069 10.9972 5.02647 10.9972 4.93491C10.9972 4.84336 10.9229 4.76913 10.8314 4.76913C10.7398 4.76913 10.6655 4.84336 10.6655 4.93491C10.6655 5.02647 10.7398 5.10069 10.8314 5.10069Z" fill="white"/>
<path id="Vector_318" d="M11.7588 5.06883C11.8478 5.06883 11.9199 4.99671 11.9199 4.90774C11.9199 4.81877 11.8478 4.74664 11.7588 4.74664C11.6698 4.74664 11.5977 4.81877 11.5977 4.90774C11.5977 4.99671 11.6698 5.06883 11.7588 5.06883Z" fill="white"/>
<path id="Vector_319" d="M10.5187 4.88905C10.6186 4.88905 10.6995 4.80812 10.6995 4.70829C10.6995 4.60846 10.6186 4.52753 10.5187 4.52753C10.4188 4.52753 10.3379 4.60846 10.3379 4.70829C10.3379 4.80812 10.4188 4.88905 10.5187 4.88905Z" fill="white"/>
<path id="Vector_320" d="M13.6228 6.44248C13.6503 6.44248 13.6726 6.42026 13.6726 6.39284C13.6726 6.36543 13.6503 6.3432 13.6228 6.3432C13.5953 6.3432 13.573 6.36543 13.573 6.39284C13.573 6.42026 13.5953 6.44248 13.6228 6.44248Z" fill="white"/>
<path id="Vector_321" d="M13.4299 6.16998C13.4678 6.16998 13.4985 6.13937 13.4985 6.10161C13.4985 6.06384 13.4678 6.03323 13.4299 6.03323C13.392 6.03323 13.3613 6.06384 13.3613 6.10161C13.3613 6.13937 13.392 6.16998 13.4299 6.16998Z" fill="white"/>
<path id="Vector_322" d="M13.3064 5.99958C13.3505 5.99958 13.3862 5.96394 13.3862 5.91997C13.3862 5.87601 13.3505 5.84036 13.3064 5.84036C13.2623 5.84036 13.2266 5.87601 13.2266 5.91997C13.2266 5.96394 13.2623 5.99958 13.3064 5.99958Z" fill="white"/>
<path id="Vector_323" d="M13.1857 5.8151C13.2376 5.8151 13.2796 5.77316 13.2796 5.72144C13.2796 5.66971 13.2376 5.62778 13.1857 5.62778C13.1338 5.62778 13.0918 5.66971 13.0918 5.72144C13.0918 5.77316 13.1338 5.8151 13.1857 5.8151Z" fill="white"/>
<path id="Vector_324" d="M13.058 5.64188C13.1165 5.64188 13.1639 5.59449 13.1639 5.53604C13.1639 5.47759 13.1165 5.43021 13.058 5.43021C12.9995 5.43021 12.9521 5.47759 12.9521 5.53604C12.9521 5.59449 12.9995 5.64188 13.058 5.64188Z" fill="white"/>
<path id="Vector_325" d="M12.9332 5.45648C12.9984 5.45648 13.0513 5.40365 13.0513 5.33847C13.0513 5.27329 12.9984 5.22046 12.9332 5.22046C12.868 5.22046 12.8152 5.27329 12.8152 5.33847C12.8152 5.40365 12.868 5.45648 12.9332 5.45648Z" fill="white"/>
<path id="Vector_326" d="M12.8004 5.25143C12.8723 5.25143 12.9306 5.19315 12.9306 5.12125C12.9306 5.04934 12.8723 4.99106 12.8004 4.99106C12.7285 4.99106 12.6702 5.04934 12.6702 5.12125C12.6702 5.19315 12.7285 5.25143 12.8004 5.25143Z" fill="white"/>
<path id="Vector_327" d="M13.5263 6.31606C13.5611 6.31606 13.5892 6.28796 13.5892 6.2533C13.5892 6.21865 13.5611 6.19055 13.5263 6.19055C13.4916 6.19055 13.4634 6.21865 13.4634 6.2533C13.4634 6.28796 13.4916 6.31606 13.5263 6.31606Z" fill="white"/>
<path id="Vector_328" d="M13.7081 6.2065C13.7403 6.2065 13.7664 6.1805 13.7664 6.14843C13.7664 6.11636 13.7403 6.09036 13.7081 6.09036C13.676 6.09036 13.6499 6.11636 13.6499 6.14843C13.6499 6.1805 13.676 6.2065 13.7081 6.2065Z" fill="white"/>
<path id="Vector_329" d="M13.6745 6.05856C13.7124 6.05856 13.7431 6.02795 13.7431 5.99019C13.7431 5.95242 13.7124 5.92181 13.6745 5.92181C13.6367 5.92181 13.606 5.95242 13.606 5.99019C13.606 6.02795 13.6367 6.05856 13.6745 6.05856Z" fill="white"/>
<path id="Vector_330" d="M13.634 5.8694C13.6781 5.8694 13.7139 5.83375 13.7139 5.78979C13.7139 5.74582 13.6781 5.71017 13.634 5.71017C13.5899 5.71017 13.5542 5.74582 13.5542 5.78979C13.5542 5.83375 13.5899 5.8694 13.634 5.8694Z" fill="white"/>
<path id="Vector_331" d="M13.5909 5.69243C13.6407 5.69243 13.6811 5.65217 13.6811 5.60252C13.6811 5.55286 13.6407 5.5126 13.5909 5.5126C13.5411 5.5126 13.5007 5.55286 13.5007 5.60252C13.5007 5.65217 13.5411 5.69243 13.5909 5.69243Z" fill="white"/>
<path id="Vector_332" d="M13.5543 5.50611C13.6102 5.50611 13.6555 5.46082 13.6555 5.40496C13.6555 5.34909 13.6102 5.3038 13.5543 5.3038C13.4984 5.3038 13.4531 5.34909 13.4531 5.40496C13.4531 5.46082 13.4984 5.50611 13.5543 5.50611Z" fill="white"/>
<path id="Vector_333" d="M13.5141 5.301C13.5756 5.301 13.6256 5.2511 13.6256 5.18955C13.6256 5.12799 13.5756 5.07809 13.5141 5.07809C13.4525 5.07809 13.4026 5.12799 13.4026 5.18955C13.4026 5.2511 13.4525 5.301 13.5141 5.301Z" fill="white"/>
<path id="Vector_334" d="M13.755 6.43686C13.7809 6.43686 13.8019 6.41589 13.8019 6.39003C13.8019 6.36417 13.7809 6.3432 13.755 6.3432C13.729 6.3432 13.708 6.36417 13.708 6.39003C13.708 6.41589 13.729 6.43686 13.755 6.43686Z" fill="white"/>
<path id="Vector_335" d="M13.7334 6.332C13.7635 6.332 13.7879 6.30768 13.7879 6.27768C13.7879 6.24768 13.7635 6.22336 13.7334 6.22336C13.7033 6.22336 13.679 6.24768 13.679 6.27768C13.679 6.30768 13.7033 6.332 13.7334 6.332Z" fill="white"/>
<path id="Vector_336" d="M31.929 9.63089V4.70453H34.2622C34.8973 4.70453 35.3759 4.83281 35.6981 5.09126C36.0203 5.34877 36.1814 5.73082 36.1814 6.23647C36.1814 6.74212 36.0156 7.15039 35.685 7.40602C35.3534 7.66166 34.8523 7.78901 34.1807 7.78901H32.6137V9.63089H31.9299H31.929ZM34.2004 7.18784C34.6331 7.18784 34.9525 7.10825 35.1595 6.95C35.3665 6.79081 35.4705 6.54829 35.4705 6.22242C35.4705 5.89656 35.3693 5.67276 35.167 5.52575C34.9647 5.37873 34.6472 5.30476 34.2144 5.30476H32.6137V7.18878H34.2013L34.2004 7.18784Z" fill="white"/>
<path id="Vector_337" d="M40.743 5.97987C40.6277 5.69427 40.4517 5.49014 40.2147 5.3656C39.9777 5.24106 39.6452 5.17926 39.2171 5.17926C38.7291 5.17926 38.3535 5.24387 38.0884 5.37309C37.8243 5.50138 37.6913 5.68585 37.6913 5.92463C37.6913 6.08569 37.7316 6.21772 37.8121 6.32166C37.8927 6.4256 38.0191 6.50894 38.1915 6.57355C38.3638 6.63816 38.5952 6.6906 38.8855 6.73273L39.8381 6.87038C40.4086 6.95747 40.831 7.1204 41.1045 7.35731C41.378 7.59422 41.5148 7.91727 41.5148 8.32647C41.5148 8.77782 41.3218 9.12803 40.935 9.37898C40.5481 9.62993 40.0095 9.75541 39.3192 9.75541C38.5558 9.75541 37.9704 9.62713 37.5658 9.36868C37.1611 9.11117 36.9288 8.71976 36.8689 8.19538H37.5733C37.6379 8.52218 37.8121 8.76377 38.0978 8.92015C38.3835 9.07653 38.7909 9.15518 39.3192 9.15518C39.7979 9.15518 40.166 9.08308 40.4236 8.93794C40.6811 8.7928 40.8104 8.58679 40.8104 8.31992C40.8104 8.09425 40.7233 7.91727 40.5481 7.78899C40.373 7.6607 40.0882 7.56612 39.692 7.50619L38.8359 7.38259C38.376 7.3133 38.0135 7.21966 37.7484 7.0998C37.4843 6.97994 37.2932 6.82731 37.1752 6.64097C37.0581 6.45462 36.9991 6.22334 36.9991 5.9471C36.9991 5.51917 37.1949 5.18488 37.5854 4.94329C37.977 4.7017 38.5193 4.5809 39.2143 4.5809C39.6424 4.5809 40.0002 4.62585 40.2877 4.71574C40.5753 4.80564 40.8085 4.94422 40.9884 5.13337C41.1682 5.32253 41.3031 5.56599 41.3958 5.8647L40.7401 5.98175L40.743 5.97987Z" fill="white"/>
<path id="Vector_338" d="M42.5788 9.63089V4.70453H44.7734C46.067 4.70453 46.7133 5.12497 46.7133 5.96585C46.7133 6.23179 46.6449 6.45371 46.51 6.63069C46.3742 6.80767 46.1728 6.93689 45.9059 7.02023C46.5728 7.24122 46.9062 7.63544 46.9062 8.20196C46.9062 8.66735 46.7339 9.02224 46.3882 9.26664C46.0426 9.51104 45.5368 9.63277 44.8699 9.63277H42.5779L42.5788 9.63089ZM44.8221 6.7674C45.2315 6.7674 45.5331 6.7056 45.726 6.58106C45.919 6.45652 46.0164 6.26175 46.0164 5.99488C46.0164 5.74673 45.9152 5.56601 45.7129 5.45364C45.5106 5.34128 45.1856 5.28416 44.7397 5.28416H43.2485V6.7674H44.8221ZM44.8362 9.05127C45.3148 9.05127 45.6614 8.98572 45.875 8.85462C46.0885 8.72353 46.1953 8.51097 46.1953 8.216C46.1953 7.92104 46.0848 7.70286 45.8637 7.56053C45.6427 7.4182 45.3064 7.34703 44.8559 7.34703H43.2476V9.05127H44.8353H44.8362Z" fill="white"/>
<path id="Vector_339" d="M36.5531 16.4169L35.9611 15.1238H33.2372L32.6378 16.4169H31.6768L34.1121 11.2602H35.1087L37.544 16.4169H36.554H36.5531ZM34.5954 12.1339L33.5557 14.3728H35.622L34.5964 12.1339H34.5954Z" fill="white"/>
<path id="Vector_340" d="M38.2214 16.4169V11.2602H39.0888V16.4169H38.2214Z" fill="white"/>
<path id="Vector_341" d="M40.2307 16.4169V11.2602H41.0971V16.4169H40.2307Z" fill="white"/>
<path id="Vector_342" d="M42.2246 12.1049V11.2602H43.1201V12.1049H42.2246ZM42.2387 16.4169V12.6611H43.106V16.4169H42.2387Z" fill="white"/>
<path id="Vector_343" d="M47.1582 16.4169V15.8757C46.9372 16.0967 46.6964 16.2596 46.436 16.3626C46.1756 16.4656 45.8703 16.518 45.519 16.518C45.032 16.518 44.6564 16.4179 44.3913 16.2184C44.1271 16.018 43.9941 15.7362 43.9941 15.37C43.9941 14.9608 44.1665 14.6565 44.5102 14.4561C44.8549 14.2567 45.3973 14.1443 46.14 14.1199L47.1367 14.0909V13.9682C47.1367 13.4579 46.7995 13.2032 46.126 13.2032C45.7982 13.2032 45.5453 13.2425 45.3673 13.3221C45.1893 13.4017 45.0732 13.5235 45.0207 13.6873L44.248 13.6002C44.3351 13.2388 44.5327 12.9729 44.8409 12.8024C45.1491 12.6311 45.5874 12.5459 46.155 12.5459C46.7667 12.5459 47.221 12.6667 47.517 12.9073C47.8129 13.148 47.9609 13.5169 47.9609 14.0123V16.4179H47.1591L47.1582 16.4169ZM47.1367 14.6621L46.1541 14.6911C45.7017 14.7061 45.3748 14.7614 45.1753 14.8569C44.9758 14.9533 44.8755 15.1003 44.8755 15.2979C44.8755 15.4758 44.9524 15.6144 45.1069 15.7137C45.2615 15.812 45.475 15.8616 45.7495 15.8616C45.9565 15.8616 46.155 15.8317 46.3452 15.7708C46.5353 15.7109 46.7002 15.6257 46.8397 15.5142C47.0374 15.3653 47.1357 15.165 47.1357 14.9149V14.6621H47.1367Z" fill="white"/>
<path id="Vector_344" d="M52.2088 16.4169V14.149C52.2088 13.8315 52.1338 13.6012 51.9849 13.4598C51.836 13.3174 51.5952 13.2472 51.2627 13.2472C51.0791 13.2472 50.9021 13.2809 50.7316 13.3483C50.5602 13.4158 50.4104 13.5094 50.2802 13.6302C50.0535 13.8418 49.9411 14.0881 49.9411 14.3671V16.4188H49.0737V12.6629H49.9261V13.2837C50.3401 12.7931 50.8749 12.5468 51.5306 12.5468C52.0364 12.5468 52.4204 12.6695 52.6827 12.9148C52.945 13.1601 53.0771 13.5188 53.0771 13.9907V16.4178H52.2097L52.2088 16.4169Z" fill="white"/>
<path id="Vector_345" d="M58.1108 15.1022C58.0386 15.5592 57.8316 15.9122 57.4897 16.1603C57.1479 16.4085 56.6992 16.5321 56.1456 16.5321C55.4665 16.5321 54.9383 16.3579 54.5598 16.0087C54.1814 15.6594 53.9932 15.1725 53.9932 14.546C53.9932 14.1462 54.0784 13.796 54.2498 13.4954C54.4212 13.1948 54.6704 12.9607 54.9973 12.7949C55.3251 12.6283 55.7129 12.5459 56.1606 12.5459C56.6805 12.5459 57.1029 12.6582 57.4279 12.882C57.7529 13.1058 57.959 13.427 58.0461 13.8465L57.1647 13.9617C57.0298 13.471 56.6926 13.2248 56.1531 13.2248C55.7532 13.2248 55.4422 13.339 55.2211 13.5675C55.0001 13.796 54.8886 14.1181 54.8886 14.532C54.8886 14.9458 54.9982 15.2876 55.2174 15.5142C55.4366 15.7408 55.7532 15.8541 56.1672 15.8541C56.7695 15.8541 57.1263 15.6041 57.2368 15.1032H58.1108V15.1022Z" fill="white"/>
<path id="Vector_346" d="M59.6496 14.7558C59.6589 15.1022 59.7807 15.3785 60.0139 15.5826C60.2472 15.7877 60.5553 15.8897 60.9356 15.8897C61.2344 15.8897 61.4789 15.8401 61.669 15.7418C61.8592 15.6435 61.9903 15.4974 62.0624 15.3045H62.9223C62.8164 15.7184 62.5982 16.0264 62.2685 16.2287C61.9388 16.431 61.492 16.5321 60.9281 16.5321C60.2687 16.5321 59.7498 16.3579 59.3714 16.0087C58.9939 15.6594 58.8047 15.1818 58.8047 14.575C58.8047 14.1799 58.8909 13.8297 59.0613 13.5244C59.2327 13.2182 59.4772 12.9794 59.7976 12.8062C60.1179 12.633 60.4926 12.5459 60.9216 12.5459C61.5716 12.5459 62.0755 12.7135 62.4352 13.0478C62.794 13.3821 62.9729 13.8503 62.9729 14.4524V14.7558H59.6496ZM62.142 14.178C62.1317 13.8596 62.0203 13.6134 61.8058 13.4373C61.5913 13.2613 61.2934 13.1733 60.9131 13.1733C60.5712 13.1733 60.2884 13.2641 60.0645 13.4439C59.8406 13.6237 59.7095 13.869 59.6711 14.1771H62.142V14.178Z" fill="white"/>
<path id="Vector_347" d="M32.9474 18.978H32.3581V20.5899H32.1501V18.978H31.5608V18.7832H32.9474V18.978Z" fill="white"/>
<path id="Vector_348" d="M33.825 19.2917V19.4837C33.6273 19.4865 33.3744 19.5895 33.3744 19.9004V20.5898H33.1748V19.3123H33.3744V19.5483C33.4718 19.3731 33.6442 19.2954 33.825 19.2926V19.2917Z" fill="white"/>
<path id="Vector_349" d="M35.2552 19.3113V20.5888H35.0519V20.3584C34.9545 20.5111 34.7933 20.6113 34.5769 20.6113C34.2125 20.6113 33.9548 20.3303 33.9548 19.9501C33.9548 19.5698 34.2134 19.2917 34.5769 19.2917C34.7933 19.2917 34.9545 19.3891 35.0519 19.5417V19.3113H35.2552ZM35.0519 19.9501C35.0519 19.6775 34.8767 19.4837 34.6013 19.4837C34.3258 19.4837 34.1488 19.6785 34.1488 19.9501C34.1488 20.2217 34.3296 20.4193 34.6013 20.4193C34.873 20.4193 35.0519 20.2217 35.0519 19.9501Z" fill="white"/>
<path id="Vector_350" d="M36.722 19.803V20.5888H36.5215V19.8302C36.5215 19.5857 36.3491 19.4659 36.1599 19.4659C35.9707 19.4659 35.8011 19.5857 35.8011 19.8302V20.5888H35.6006V19.3113H35.8011V19.4837C35.8985 19.3507 36.054 19.2917 36.2124 19.2917C36.4681 19.2917 36.7211 19.4415 36.7211 19.803H36.722Z" fill="white"/>
<path id="Vector_351" d="M37.1488 20.2385C37.191 20.3528 37.3465 20.4549 37.5461 20.4549C37.7456 20.4549 37.8459 20.3828 37.8459 20.2385C37.8459 20.0774 37.6154 20.0409 37.4955 20.0081C37.3756 19.9744 37.0505 19.9135 37.0505 19.6466C37.0505 19.4078 37.2566 19.2851 37.5339 19.2851C37.7925 19.2851 37.9705 19.3993 38.0257 19.5379L37.8843 19.6213C37.8477 19.5295 37.7035 19.4462 37.5283 19.4462C37.3531 19.4462 37.2472 19.5183 37.2472 19.6382C37.2472 19.788 37.458 19.8217 37.5779 19.8545C37.6978 19.8882 38.0389 19.9575 38.0389 20.232C38.0389 20.4877 37.858 20.6207 37.5414 20.6207C37.2528 20.6207 37.0664 20.4933 37.0027 20.3238L37.147 20.2376L37.1488 20.2385Z" fill="white"/>
<path id="Vector_352" d="M38.6215 19.1447V19.3114H38.9607V19.4697H38.6215V20.5889H38.4182V19.4697H38.2402V19.3114H38.4182V19.1335C38.4182 18.9115 38.5428 18.7832 38.7686 18.7832H38.9907V18.9471H38.8211C38.6965 18.9471 38.6206 19.0192 38.6206 19.1447H38.6215Z" fill="white"/>
<path id="Vector_353" d="M39.1077 19.9501C39.1077 19.567 39.3747 19.2888 39.7579 19.2888C40.141 19.2888 40.408 19.567 40.408 19.9501C40.408 20.3331 40.141 20.6141 39.7579 20.6141C39.3747 20.6141 39.1077 20.3303 39.1077 19.9501ZM40.2057 19.9501C40.2057 19.6803 40.0277 19.4836 39.7579 19.4836C39.488 19.4836 39.3082 19.6813 39.3082 19.9501C39.3082 20.2189 39.489 20.4193 39.7579 20.4193C40.0267 20.4193 40.2057 20.2189 40.2057 19.9501Z" fill="white"/>
<path id="Vector_354" d="M41.366 19.2917V19.4837C41.1683 19.4865 40.9153 19.5895 40.9153 19.9004V20.5898H40.7148V19.3123H40.9153V19.5483C41.0128 19.3731 41.1852 19.2954 41.366 19.2926V19.2917Z" fill="white"/>
<path id="Vector_355" d="M43.5468 19.803V20.5888H43.3463V19.8246C43.3463 19.5689 43.1823 19.4715 43.0156 19.4715C42.8488 19.4715 42.6905 19.5689 42.6905 19.8246V20.5888H42.4872V19.8246C42.4872 19.5689 42.3232 19.4715 42.1593 19.4715C41.9953 19.4715 41.8313 19.5689 41.8313 19.8246V20.5888H41.6309V19.3113H41.8313V19.4752C41.9232 19.3469 42.0674 19.2917 42.2117 19.2917C42.3813 19.2917 42.5509 19.3582 42.6342 19.5305C42.7261 19.3553 42.9041 19.2917 43.0708 19.2917C43.3069 19.2917 43.5458 19.4247 43.5458 19.803H43.5468Z" fill="white"/>
<path id="Vector_356" d="M43.8958 18.9143C43.8958 18.8394 43.9566 18.7944 44.0175 18.7944C44.0784 18.7944 44.1403 18.8384 44.1403 18.9143C44.1403 18.9902 44.0794 19.0389 44.0175 19.0389C43.9557 19.0389 43.8958 18.9892 43.8958 18.9143ZM43.9182 20.5899V19.3123H44.1215L44.1187 20.5899H43.9182Z" fill="white"/>
<path id="Vector_357" d="M45.6102 19.803V20.5888H45.4097V19.8302C45.4097 19.5857 45.2373 19.4659 45.0481 19.4659C44.8588 19.4659 44.6893 19.5857 44.6893 19.8302V20.5888H44.4888V19.3113H44.6893V19.4837C44.7867 19.3507 44.9422 19.2917 45.1005 19.2917C45.3563 19.2917 45.6093 19.4415 45.6093 19.803H45.6102Z" fill="white"/>
<path id="Vector_358" d="M47.2222 19.3113V20.4952C47.2222 20.8623 46.9608 21.1171 46.5495 21.1171C46.3275 21.1171 46.1383 21.0309 46.0211 20.8923L46.157 20.778C46.26 20.8923 46.4015 20.9419 46.5486 20.9419C46.7847 20.9419 47.018 20.8005 47.018 20.4942V20.3584C46.9205 20.5111 46.7594 20.6113 46.543 20.6113C46.1785 20.6113 45.9209 20.3303 45.9209 19.9501C45.9209 19.5698 46.1795 19.2917 46.543 19.2917C46.7594 19.2917 46.9205 19.3891 47.018 19.5417V19.3113H47.2213H47.2222ZM47.0189 19.9501C47.0189 19.6775 46.8409 19.4837 46.5683 19.4837C46.2956 19.4837 46.1158 19.6785 46.1158 19.9501C46.1158 20.2217 46.2966 20.4193 46.5683 20.4193C46.84 20.4193 47.0189 20.2217 47.0189 19.9501Z" fill="white"/>
<path id="Vector_359" d="M49.4552 18.978H48.8659V20.5899H48.6579V18.978H48.0686V18.7832H49.4552V18.978Z" fill="white"/>
<path id="Vector_360" d="M49.5542 19.9501C49.5542 19.567 49.8212 19.2888 50.2044 19.2888C50.5876 19.2888 50.8546 19.567 50.8546 19.9501C50.8546 20.3331 50.5876 20.6141 50.2044 20.6141C49.8212 20.6141 49.5542 20.3303 49.5542 19.9501ZM50.6522 19.9501C50.6522 19.6803 50.4742 19.4836 50.2044 19.4836C49.9346 19.4836 49.7547 19.6813 49.7547 19.9501C49.7547 20.2189 49.9355 20.4193 50.2044 20.4193C50.4733 20.4193 50.6522 20.2189 50.6522 19.9501Z" fill="white"/>
<path id="Vector_361" d="M52.4244 19.3113V20.4952C52.4244 20.8623 52.163 21.1171 51.7517 21.1171C51.5297 21.1171 51.3404 21.0309 51.2243 20.8923L51.3601 20.778C51.4632 20.8923 51.6046 20.9419 51.7517 20.9419C51.9878 20.9419 52.2211 20.8005 52.2211 20.4942V20.3584C52.1237 20.5111 51.9625 20.6113 51.7461 20.6113C51.3826 20.6113 51.124 20.3303 51.124 19.9501C51.124 19.5698 51.3826 19.2917 51.7461 19.2917C51.9625 19.2917 52.1237 19.3891 52.2211 19.5417V19.3113H52.4244ZM52.2211 19.9501C52.2211 19.6775 52.0431 19.4837 51.7705 19.4837C51.4978 19.4837 51.318 19.6785 51.318 19.9501C51.318 20.2217 51.4988 20.4193 51.7705 20.4193C52.0422 20.4193 52.2211 20.2217 52.2211 19.9501Z" fill="white"/>
<path id="Vector_362" d="M53.9747 19.9501V20.0137H52.9272C52.9525 20.2694 53.1277 20.439 53.3798 20.439C53.569 20.439 53.6992 20.3528 53.7714 20.2441L53.9128 20.3472C53.8014 20.5111 53.613 20.6141 53.3788 20.6141C52.99 20.6141 52.7314 20.3303 52.7314 19.9501C52.7314 19.5698 52.9788 19.2888 53.362 19.2888C53.7451 19.2888 53.9737 19.5698 53.9737 19.9501H53.9747ZM52.9272 19.8751H53.7892C53.7611 19.6335 53.6027 19.4555 53.3638 19.4555C53.1249 19.4555 52.9554 19.6251 52.9272 19.8751Z" fill="white"/>
<path id="Vector_363" d="M54.5542 19.4697V20.2555C54.5542 20.3913 54.6376 20.425 54.7322 20.425H54.8465V20.5889H54.6601C54.4652 20.5889 54.3518 20.4774 54.3518 20.2836V19.4697H54.1738V19.3114H54.3518V18.9227H54.5551V19.3114H54.8606V19.4697H54.5551H54.5542Z" fill="white"/>
<path id="Vector_364" d="M56.2543 19.8031V20.5889H56.0538V19.8303C56.0538 19.5858 55.8814 19.466 55.6921 19.466C55.5029 19.466 55.3333 19.5858 55.3333 19.8303V20.5889H55.1328V18.7832H55.3333V19.4837C55.4307 19.3508 55.5863 19.2917 55.7446 19.2917C56.0004 19.2917 56.2533 19.4416 56.2533 19.8031H56.2543Z" fill="white"/>
<path id="Vector_365" d="M57.8074 19.9501V20.0137H56.76C56.7853 20.2694 56.9605 20.439 57.2125 20.439C57.4018 20.439 57.532 20.3528 57.6041 20.2441L57.7456 20.3472C57.6341 20.5111 57.4458 20.6141 57.2116 20.6141C56.8228 20.6141 56.5642 20.3303 56.5642 19.9501C56.5642 19.5698 56.8115 19.2888 57.1947 19.2888C57.5779 19.2888 57.8065 19.5698 57.8065 19.9501H57.8074ZM56.76 19.8751H57.6219C57.5938 19.6335 57.4355 19.4555 57.1966 19.4555C56.9577 19.4555 56.7881 19.6251 56.76 19.8751Z" fill="white"/>
<path id="Vector_366" d="M58.7683 19.2917V19.4837C58.5706 19.4865 58.3177 19.5895 58.3177 19.9004V20.5898H58.1172V19.3123H58.3177V19.5483C58.4151 19.3731 58.5875 19.2954 58.7683 19.2926V19.2917Z" fill="white"/>
</g>
</svg>
