<svg width="24" height="24" viewBox="0 0 24 24" fill="none" xmlns="http://www.w3.org/2000/svg">
<g id="hammer">
<path id="Vector" d="M11.414 10L4.03097 17.418C3.83532 17.6124 3.68004 17.8435 3.57408 18.0981C3.46812 18.3527 3.41357 18.6258 3.41357 18.9015C3.41357 19.1773 3.46812 19.4503 3.57408 19.705C3.68004 19.9596 3.83532 20.1907 4.03097 20.385C4.42634 20.7783 4.96132 20.9991 5.51897 20.9991C6.07662 20.9991 6.6116 20.7783 7.00697 20.385L14.414 13M18.121 15.293L20.707 12.707C20.8944 12.5195 20.9998 12.2652 20.9998 12C20.9998 11.7349 20.8944 11.4806 20.707 11.293L13.121 3.70703C12.9334 3.51956 12.6791 3.41425 12.414 3.41425C12.1488 3.41425 11.8945 3.51956 11.707 3.70703L9.12097 6.29303C8.9335 6.48056 8.82819 6.73487 8.82819 7.00003C8.82819 7.2652 8.9335 7.5195 9.12097 7.70703L16.707 15.293C16.8945 15.4805 17.1488 15.5858 17.414 15.5858C17.6791 15.5858 17.9334 15.4805 18.121 15.293Z" stroke="white" stroke-width="1.125" stroke-linecap="round" stroke-linejoin="round"/>
</g>
</svg>
