<svg width="25" height="24" viewBox="0 0 25 24" fill="none" xmlns="http://www.w3.org/2000/svg">
<g id="smart-home">
<path id="Vector" d="M16.75 15C14.54 16.333 10.958 16.333 8.75 15M19.75 8.71001L14.417 4.56201C13.949 4.19792 13.373 4.00024 12.78 4.00024C12.1871 4.00024 11.611 4.19792 11.143 4.56201L5.80903 8.71001C5.48847 8.9593 5.22912 9.27854 5.05078 9.64336C4.87245 10.0082 4.77984 10.4089 4.78003 10.815V18.015C4.78003 18.5454 4.99074 19.0542 5.36582 19.4292C5.74089 19.8043 6.2496 20.015 6.78003 20.015H18.78C19.3105 20.015 19.8192 19.8043 20.1942 19.4292C20.5693 19.0542 20.78 18.5454 20.78 18.015V10.815C20.78 9.99201 20.4 9.21501 19.75 8.71001Z" stroke="#FF5E15" stroke-width="2" stroke-linecap="round" stroke-linejoin="round"/>
</g>
</svg>
