<svg width="25" height="24" viewBox="0 0 25 24" fill="none" xmlns="http://www.w3.org/2000/svg">
<g id="user (3) 1">
<g id="Group">
<path id="Vector" fill-rule="evenodd" clip-rule="evenodd" d="M12.25 4C10.5931 4 9.25 5.34315 9.25 7C9.25 8.65685 10.5931 10 12.25 10C13.9068 10 15.25 8.65685 15.25 7C15.25 5.34315 13.9068 4 12.25 4ZM7.25 7C7.25 4.23858 9.48858 2 12.25 2C15.0114 2 17.25 4.23858 17.25 7C17.25 9.76142 15.0114 12 12.25 12C9.48858 12 7.25 9.76142 7.25 7Z" fill="#888888"/>
<path id="Vector_2" fill-rule="evenodd" clip-rule="evenodd" d="M12.2499 20C9.32107 20 7.58455 19.1139 6.5853 17.9708C6.28083 17.6225 6.20148 17.3163 6.21068 17.0651C6.2205 16.7971 6.33636 16.487 6.59714 16.1692C7.13281 15.5164 8.15124 15 9.24992 15H15.2499C16.3486 15 17.367 15.5164 17.9027 16.1692C18.1635 16.487 18.2793 16.7971 18.2891 17.0651C18.2983 17.3163 18.219 17.6225 17.9145 17.9708C16.9153 19.1139 15.1788 20 12.2499 20ZM5.07951 19.2871C6.55207 20.9716 8.90319 22 12.2499 22C15.5966 22 17.9477 20.9716 19.4203 19.2871C20.0245 18.5958 20.3175 17.8036 20.2878 16.9919C20.2587 16.1971 19.9243 15.48 19.4487 14.9004C18.5117 13.7585 16.9126 13 15.2499 13H9.24992C7.58718 13 5.98815 13.7585 5.05107 14.9004C4.57548 15.48 4.24114 16.1971 4.21202 16.9919C4.18229 17.8036 4.47528 18.5958 5.07951 19.2871Z" fill="#888888"/>
</g>
</g>
</svg>
